<?xml version="1.0" encoding="UTF-8" standalone="no"?>
<svg xmlns:rdf="http://www.w3.org/1999/02/22-rdf-syntax-ns#" xmlns="http://www.w3.org/2000/svg" height="958pt" width="780pt" version="1.1" xmlns:cc="http://creativecommons.org/ns#" xmlns:dc="http://purl.org/dc/elements/1.1/" viewBox="0 0 780 958">
<g>
<path d="m517.53 0c-21.61 4.23-22.019 34.06-43.689 37.83-38.94 11.92-70.68 48.86-72.54 90.07-1.15 4.26 3.3606 15.58-4.4094 11.97-11.53-5.17-11.85 10.68-11.9 17.8-1.18 2.87-3.3703 2.51-4.8203 0.05-7.12-20.61-25.17-38.42-47.42-41.05-35.95-4.18-80.87 20.46-81.77 60.12-2.9 0.19-4.9203-2.43-7.2703-3.75-29.52-21.63-69.719-30.38-91.439-61.57-3.7-13.26 5.3103-36.83-11.38-43.27-24.18 9.81-29.611 45.98-11.961 64.57-0.15 0.56-0.43032 1.6894-0.57032 2.2594-4.25 77.41 69.501 140.91 143.86 140.93l-0.12968 0.91093c-8.75 15.45-18.1 30.77-30.59 43.63-12.72 14.69-24.69 36.69-14.75 55.83 4.29-8.79-0.22936-21.52 8.1406-29.42-0.58 2.87-2.2513 5.9003-1.0313 8.8203-4.72 7.71-2.7387 17.361-0.71872 25.611 3.02-5.37-4.5206-17.531 1.6594-19.881-0.53 24.67 19.4 44.13 39.83 54.9-0.08-0.53-0.22936-1.5888-0.30936-2.1188 2.07-3.32-6.5106-8.0112 1.7594-10.281 5.24 4.46 11.1 8.0309 17.13 11.261-11.61 3.76-22.6 15.959-15.38 28.239-29.06-3.15-37.689 31.71-46.959 52.42-7.59 20.1-23.401 36.331-41.241 47.811-16.5 8.44-36.51 3.9388-52.75 13.319-5.39 5.03-8.95-2.24-12.55-5.4-2.04-1.44-6.269-9.99-7.089-4.1-0.52 1.37-1.3013 2.6203-2.2813 3.7203-3.5438-3.0562-7.3154-7.1406-12.239-7.1531-0.32824-0.0008-0.6612 0.0163-1 0.0531 2.81 2.36 5.7797 4.5806 8.5297 7.0406-15.61 3.22-32.431 3.9397-46.741 11.53-1.81 3.78 2.3313 1.4203 4.3313 1.0703 2.03 0.7 4.0497 1.4194 6.0797 2.1594-11.77 6.7-28.421 9.3097-36.891 20.03 7.73-2.26 14.9-6.12 21.87-10.1 0.71 0.67 1.4203 1.3412 2.1203 2.0312-12.6 11.61-26.95 29.15-21.23 47.28 0.47 1.3 2.2187 1.1094 3.2687 1.7094 2.78 5.01 5.6003-11.94 7.3203-12.48-0.02 13.82 1.701 31.71 17.411 36.78-2.28-3.76-5.29-7.07-7.15-11.05 0.71-2.12 1.34-4.2497 1.9-6.3797 1.74 6.98 8.7487 12.13 7.9687 19.62-4.74 10.93-7.5397 22.6-8.7797 34.45-1.02 14.7-2.3803 30.15 3.1297 44.22 3.89 15.06 11.21 28.609 19.27 41.789-8.94 6.14-20.73 6.51-29.33 12.95-5.88 10.11-19.8 7.2903-27.73 15.27-18.45 13.22-23.38 36.65-27.07 57.62v24.73c2.5 19.58 8.6106 39.469 22.791 53.809 17.11 21.46 49.169 20.671 72.569 11.291 13.35 1.04 27.48-1.4497 38.25-9.8797 9.51-8.15 25.651-9.2506 30.261-22.341 7.6-9.42 6.25-25.41-3.55-32.67-19.3-12.52-43.76-6.559-64.65-2.189-6.15-5.33-17.06-7.7303-17.65-17.32 31.87-3.07 67.679-12.68 87.739-39.3 7.92-25.15-3.26-51.269-4.1-76.309 15.83-0.12 31.05-6.64 46.77-6.1 21.89 9.5 41.62 24.849 51.9 46.309 22.13 9.78 19.07 36.69 18.62 56.52-1.68 11.87 2.1594 28.199 15.959 30.739 9.75 4.63 17.94-4.9097 25.6-6.3297 4.61 27.83 39.351 30.381 56.761 13.641 23.5-24.29 36.24-56.36 52.58-85.4 16.58-23.78 48.651-38.64 51.841-70.17-0.58-14.31-11.5-29.49-27.22-28.25-4.68-13.96-20.56-20.55-33.25-12.83-22.86-19.23-49.49 8.9891-52.78 32.339-24.46 13.58-3.0403 40.1-13.32 60.05-16.38-9.27-10.73-36.38-12.82-53.18-7.94-27.1-39.709-30.229-62.059-39.009-3.85-0.35-0.26128-3.25 0.71872-5 7.33-13.77 23.88-17.581 38.12-17.411 3.11-1.92 4.261-5.8091 4.011-9.2891-1.2-7.42-6.02-12.97-11.9-17.3 18.76-28.5 37.39-57.581 48.5-90.141 1.02-6.3 9.17-2.73 13.75-3.85 11.97 0.19 23.469-3.5991 34.939-6.5391 15.99-3.9 31.31-10.371 47.27-14.191 5.68 7.74 12.12 19.321 23.45 17.541 9.16-1.46 12.779-10.501 15.309-18.241 14.65 1.82 29.021-1.8806 43.531-3.0906 8.88-1.56 10.869 11.43 19.909 11.27 12.58 4.41 24.28-7.3597 22.33-19.83 3.13-6.12 10-7.8703 14.7-2.6203 7.55 6.56 18.201-0.60031 20.441-8.9703 12.92-5.95 30.11 0.19093 41.78-11.089 13.2 8.98 30.901 0.47969 34.641-14.37 11.41-4.47 26.92-2.3306 37.9-10.091 4.16-7.02 10.199-19.66 4.5187-25.85 4.69-34.85 20.96-69.999 24.17-106.06 7.65-3.87 9.611-12.63 10.861-20.42 3.08-9.56 2.0494-19.449 10.809-26.739v-6.0812c-2.16-5.41-10.899-9.3297-6.2094-15.58 6.76-10.68 0.56936-25.25-11.741-27.95 8.73-16.46-1.6397-43.929-23.03-39.259-13.04 9.57-9.4697-14.04-19.73-18.78 11.48-23.55-22.521-39.02-36.461-19.8-1.81-11.79-12.819-24.16-25.689-18.37-4.42-12.53-17.931-15.621-29.741-11.861-8.32-14.45-27.069-5.4697-35.509 4.1703-16.38-10.75-34.381 5.9506-43.741 18.491-11.05 0.7-21.009 6.8694-27.759 15.209-17.45-0.49-25.731 15.871-30.881 29.711-11.05 7.3-17.079 19.78-19.489 32.48-6.01 1.91-11.821 4.32-16.141 9.2-8.08-10.68-12.11-25.091-24.08-32.861-5.76-3.28-10.661-8.2891-8.4406-15.489 5.19 2.54 9.851 5.9803 14.911 8.7703 1.11-9.84-16.551-14.471-11.411-23.711 28.23-17.18 62.241-32.3 73.911-66.08 10.36-23.76 0.49032-58.519 27.12-72.809 12.12-7.06 14.61-30.661-0.35-34.941zm-77.573 142.16c0-0.002 0.008 0.002 0.0112 0-0.0176 0.007-0.0344 0.0239-0.0512 0.0344 0.0136-0.008 0.0264-0.0283 0.0408-0.0344zm243.28 18.148c-0.21936 0.21485-0.43552 0.43488-0.64688 0.66093 0.21136-0.22605 0.426-0.44608 0.64528-0.66093zm-223.87 220.85c6.93 20.94 10.12 46.84 16.98 69.4 0.42 2.46 6.12 11.101-2.3 7.5312-29.88-4.17-58.491-19.421-82.941-34.861 23.47-12.81 50.601-20.35 68.261-42.07zm-392.46 413.05c0.036 0.0008 0.068 0.008 0.10312 0.011-0.13168-0.0115-0.26792-0.0127-0.414 0.008 0.10736-0.0147 0.21104-0.0214 0.31088-0.0187z" fill="#bf6523"/>
<path d="m652.73 9.0352c-9.27 0.157-18.89 9.1468-24.29 15.766-8.64 14.362-22.03 24.961-37.32 31.523-18.83 21.363-42.73 38.952-57.63 63.726 0.09 11.1-11.45 16.94-14.15 25.98 0.76 8.88 9.56 2.95 14.38 1.33 6.85 1.5-10.16 16.74-13.68 21.32-3.62 5.11-7.15 10.28-11.29 15 8.63 9.22 4.97 23.2 1.5 33.97 4.59 1.1 8.93 2.98 13.4 4.5 5.98-14.77 15.46-27.5 25.04-40.1 2.06-15.4 4.56 15.64 15.42 4.65 4.95-3.79 10-7.51 14.65-11.7 7.76-16.52 26.88-27.09 28.58-46.25 9.12-17.64 9.51-39.249 22.97-54.574 2.24-4.988 4.95-9.863 5.97-15.276-4.7 0.913-8.43 4.101-12.69 6.026-4.36-0.975-10.87 1.7-13.71-2.313 24.3-6.337 41.71-32.775 51.84-50.375-2.84-2.3247-5.9-3.2552-8.99-3.2028zm-478.88 94.755c0.09 1.65 0.19 3.3 0.18 4.95 0.25 6.25-2.26 12.07-3.43 18.11-0.08 0.8-0.24 2.4-0.31 3.19 0.27 1.86 0.82 5.56 1.1 7.41-0.02 0.26-0.04 0.8-0.05 1.06-0.3 1.39-0.6 2.79-0.9 4.19l-0.2 1.08c1.46 0.95 1.81 2.21 1.05 3.79 0.98 1.1 1.61 2.41 1.86 3.87-0.06 0.44-0.2 1.32-0.26 1.76 0.22 0.7 0.7 2.11 0.93 2.81 0.08 0.23 0.24 0.69 0.33 0.92 0.73 1.86 1.64 3.65 2.36 5.51 0.83 1.9 1.09 3.97 1 6.03-0.02 3.05-0.11 6.13-0.01 9.19 7.42 32.76 17.79 66.45 42.88 90.69 15.63 13.82 28.38 33.75 49.96 35.58-49.83-32.1-82.24-90.77-83.55-149.88-9.14 0.58-2.58-9.9-3.22-15.31-0.02-11.84 0.35-26.59-9.72-34.95zm18.56 48.97c-0.67 0.14-2.03 0.44-2.72 0.58 15.05 62.72 84.38 80.04 124.22 122.59 14.94 13.31 27.72 31.13 31.08 51.11-4.6 0.95-5.28-5.5-7.31-8.36-7.4 11.82-21.88 2.51-32.24 0.72-9.89 6.75 14.44 5.24 17.21 9 12.86 9.28 31.9 0.21 42.57 13.81 4.67 8.83-20.86-0.65-24.94 2.74l-0.17 1.14c1.35 19.26-12.95 34.01-22.8 48.98 34.59-21 80.25-22.4 118.9-8.93 0.34-0.6 1-1.79 1.34-2.39-5.45-7.64-8.39-16.75-9.61-25.99-3.68-16.37 5.07-45.14 27.1-38.19 21.06 7.49 29.05 31.66 37.17 50.52 4.93-2.85 9.76-5.95 15.08-8.06 28.65-1.97-2.31-29.41 6.33-45.37-1.74-14.62 12.85-32.47 27.39-21.76 18.79 16.06 28.3 43.81 22.04 67.94 0.49 5.55 4.21 10.21 4.86 15.75 0.31 2.24 0.08 7.01 3.27 3.98-3.27-8.32 8.74-10.65 12.71-16.12 6.15-4.75 12.3-9.53 18.85-13.7-2.36 8.96-10.89 12.72-17.69 17.72 17.21 9.48 19.4-3.15 24.99-15.65 3.56-7.07 11.67-10.42 15.5-17.18 3.93-16.83-19.88-27.3-31.76-16.53-10 5.29-9.88 17.87-16.42 25.75-0.03 6.88-0.07 13.81-1.27 20.61 2.59-1.48 9.25-9.82 6.85-2.59-7.8 8.28-9.06 9.22-14 0.24 4.34-45.72-11.62-97.03-52.8-121.65 5.62 0.04 10.92 0.27 5.29-8.51-8.02-0.16-15.84 1.94-23.44 4.2 11.92 2.61 22.7 10.4 26.96 22.15-6.06-2.72-9.96-9.23-16.81-10.26 3.87 9.35-5.66-2.84-8.99-5.29-9.61-9.14 8.84-16.15 16.53-14.65 7.96-0.37 14.78 3.84 21.98 6.44-7.29-10.75-21.43-14.15-33.32-17.4-32.78-2.41-64.36 10.84-92.96 25.49 1.27 4.22 6.68 1.18 9.98 1.93 15.3 0.97 29.7 10.56 37.39 23.67-12.1-6.26-20.95-19.08-35.72-19.63-14.43-4.58 3.43 3.91-2.18 4.59-16.98 0.25-18.98 18.94-16.03 31.56-8.65-6.04-5.43-23.63 1.25-31.9 3-3.3-2.31-4.01-4.72-3.61-11.6 6.97-22.25 15.65-35.2 20.06 17.38 8.6 4.54 8.01-4.79 0.01 2.47 7.24 4.44 14.7 4.92 22.37-5.13 0.13-6.09-7.31-8.6-10.91-8.05 3.8-12.51-5.84-16.98-10.72-20.55-22.55-48.2-35.35-73.74-51.3-31.17-14.69-56.45-40-74.55-69zm578.21 2.52c-14.76-0.17-32.32 11.96-26.86 27.98-4.56-2.82-0.75-15.07-8.75-16.42-18.44-3.11-35.05 10.12-44.98 24.38 11.1 4.99 12.88 17.72 11.11 28.81 0.65 3.5-3.34 10.97 2.61 10.18 17.43-2.78 30.46 12.64 32.56 28.36-3.79-0.51-3.31-5.74-5.12-8.42-5.38-17.61-32.07-23.89-43.5-8.56-6.59 6.49 3.47 13.41 3.75 20.66-7.3-6.46-9.55-21.84-22.76-19.64-14.27-1.48-20.09 13.18-27.59 22.15 2.71-18.82 26.64-34.76 42.59-20.07 11.82-10.91-2.16-31.09-16.67-26.65-13.01 1.15-18.3 14.56-27 21.91 0.48-11.04 16.69-15.26 16.29-24.07-15.84-8.22-28.95 5.9-32.55 20.11-12.93 11 21.79 1.42 19.11 19-13.41-22.16-44.7-0.95-42.79 19.6-3.23-11.65-8.74 10.49-2.36 14.15 16.65 6.22 14.9 32.55 30.41 39.05 3.13-9.07 7.39-17.79 16-22.89 5.06-1.44 10.17-2.76 15.43-3.25 6.89 3.01 6.14-5.5 8.74-9.55 7.45-16.98 34.51-22.84 43.11-4.19 0.48 1.13 0.96 2.27 1.46 3.4 0.64 3.91 5.43 10.3 1.35 12.81-2.43-8.23-5.09-17.17-12.27-22.55-14.3-9.51-36.59 8.37-32.97 23.37 5.73 4.72 15.18 23.36 8.64 24.52 1.22-24.87-32.07-33.08-42.93-10.66-4.3 5.13-6.02 12.15-6.12 18.73 8.66-1.23 16.34 3.4 21.7 9.87 13.39-3.36-1.84 14.65 7.43 5.16 6.3-8.5 15.33-19.27 27.28-15.35 11.97 3.13 15.51 16.85 17.21 27.54 11.98-9.65 27.82-20.56 43.73-11.95 11.65 8.1 5.99 21.45 4.43 32.45 8.2-0.07 16.44-0.37 24.6-1.45 1.2-9.79-8.24-13.13-15.95-14.58 7.12-11.46 16.52 7.07 19.19 13.81 10.55-0.62 26.42 3.07 32.21-7.64 1.12-6.28-1.08-12.59-1.54-18.86-6.81-18.59-28.23-12.57-37.54 0.04-0.43-1.85 0.22-3.57 1.28-5.07 8.7-9.1 22.91-13.8 33.66-5.5 1.6-3.22 3.05-6.52 4.86-9.66 7.24-11.44 23.48-7.32 31.54 1.04 15.65-0.83 5.89-21.47 12.21-30.94 4.8-14.59 22.18-13.22 32.64-6.37 9.35-12.27 26.51-26.34 41.91-14.83 12.81 14.96 4.95 36.55-0.07 52.57 7.04-3.83 6.81 8.25 9.42 13.72 0.48 1.7 0.95 3.41 1.39 5.12 3.14-2.4 6.16-4.95 9.05-7.66 2.64-2.5 5.13-5.13 7.76-7.64 15.2-14.1 10.39-48.72-15.52-41.51-3.15-0.4-3.14-0.96-0.03-1.54 15.49-7.96 12.8-44.84-7.67-47.35-10-3.08-18.86 5.35-25.28 11.81-1.26 3.11-1.79 6.44-1.49 9.79-2.01 11.05-2.19-4.46-4.36-8.65-8.95-20.44-34.51-9.56-45.08 3.6 5.26-11.16 17.64-18.51 29.94-18.69 9.85-3.15 18.82 20.67 18.94 9.53 6.56-22.71-20.01-53.2-39.7-29.4-2.45-9.02 21.57-14.83 29.5-9.25 8.6-28.15-30.41-36.54-45.21-15.74 5.31 6.57 11.93 14.39 7.84 23.62 1.99-19.08-19.39-27.72-31.59-13.73 3.47-13.21 26.86-4.4 20.43-20.13-2.07-19.5-28.11-21.2-37.86-6.28 6.37 4.56 12.32 11.87 10.17 20.22-2.08-17.4-19.85-22.26-32.75-12.54 6.84-10.41 30.58-3.92 28.36-21.97-7.83-23.6-46.39-5.96-49.04 10.55 5.45 1.73 12.44 2.91 14.75 8.96-8.15-5.89-18.88-8.35-26.66-0.34 8.06-8.35 13.39-19.18 22.94-26.1 6.99-2.2 2.57-10.13-2.5-10.47-1.44-0.29-2.94-0.44-4.47-0.46zm-36.02 27.36c14.25-0.18 21.69 20.29 14.3 29.86 7.58-21.98-20.83-36.06-33.99-17.57-2.06-6.82 10.78-10.27 16.75-11.97 1.01-0.2 1.99-0.31 2.94-0.32zm-51.01 11.58c-0.48-0.01-0.97-0.01-1.45 0.01-11.35 0.45-24.16 9.77-24.86 21.63 13.41-1.1 31.41-1.4 33.83 16.67 11 3.78 6.54-19.42 7.95-24.77-1.94-9.38-8.29-13.34-15.47-13.54zm107.29 4.63c9.62 0.22 20.31 9.44 19.48 17.14-6.95-19.61-36.71-18-40.46 2.55-4.29-6.39 8.46-19.15 16.96-19.2 1.3-0.37 2.65-0.52 4.02-0.49zm46.15 23.93c12.55 0.17 24.07 11.34 23.03 24.37-5.61-4.26-5.76-17.89-15.31-19.65-12.29-5.02-23.14 2.94-32.59 9.7 4.29-7.61 12.32-12.97 20.95-14.11 1.31-0.23 2.62-0.33 3.92-0.31zm-79.85 0.12c9.66-0.22 19.52 6.24 20.5 16.89-4.18-2.38-5.5-7.74-9.63-10.3-7.12-5.74-18.87-4.17-24.69 2.8-4.22 0.72-0.22-3.99 1.65-4.72 3.44-3.09 7.79-4.57 12.17-4.67zm-284.51 15.98c13.76-0.24 27.4 9.06 34.49 20.12-3.55 3.88-11.28-12.41-14.54-4.22-7.66 8.27 0.28 22.47-5.08 29.18-4.12-11.97-6.9-25.92-1.15-37.8-10.27-5.01-22.43-2.54-31.6 3.53 0.38-6.65 8.17-9.03 13.61-10.41 1.42-0.24 2.84-0.37 4.27-0.4zm323.31 9.01c11.51 0.14 22.26 5.86 24.78 18.9 5.41 3.3-2.45 14.57-2.11 3.39-2.8-26.32-44.17-24.13-51.25-1.44-4.64 3.27-0.88-5.94 1.42-7.5 1.65-2.11 3.25-4.25 4.88-6.38 6.18-4.56 14.41-7.07 22.28-6.97zm-345.67 6.06c5.8 1.17 9.38 8.01 10.81 13.51-4.33-2.33-12.9-9.29-10.81-13.51zm-26.73 3.82c17.6 0.45 31.38 21.06 30.22 37.12-7.44-8.65-13.19-24.61-27.27-24.7-13.45 2.15-13.43 20.4-10.93 30.53 6.02 6.23-3.3 7.35-3.04 2.82-2.47-15.13-6.13-36.45 9.3-45.75 0.58-0.03 1.15-0.04 1.72-0.02zm319.93 2.86c17.31-0.16 25.69 23.73 19.78 38.18-1.1-12.89-1.81-31.17-17.51-34.42-13.22-2.89-23.94 7.5-29.84 18.22 0.46-10.56 12.51-18.42 21.91-21.12 1.98-0.57 3.86-0.84 5.66-0.86zm-104.66 9.15c10.76-0.04 21.71 7.28 22.12 19.06 0.87 7.36-0.33 6.5-2.09 2.41-2.03-26.56-36.98-21.26-43.43-0.36-3.75-2.32 4.4-9.76 6.58-12.46 3.98-5.95 10.37-8.63 16.82-8.65zm203.7 4.38c10.53-0.29 21.89 10.41 19.16 21.05-5.61-26.53-40.57-18.94-49.49 0.74 0.53-10.25 17.55-20.86 29.32-21.73 0.33-0.03 0.67-0.05 1.01-0.06zm74.48 10.71c-2.12-0.05-4.47 0.25-7.07 0.95-7.2 3.57-19.37 8.71-18.36 18.48 5.16 5.48 9.73 11.46 13.93 17.71 1.38 4.78 2.98 9.49 4.62 14.19 1.65-8.53 14.57 7.23 18.17-2.71 8.59-15.54 9.24-48.19-11.29-48.62zm-325.75 5.58c-1.2-0.01-2.45 0.09-3.75 0.34-5.95 1.4-13.61 4.19-13.99 11.36-4.68 12.3 4.46 24.3 3.11 36.8 2.04 10.72 5.51-11.98 10.65-15.98 6.41-6.53 14.69-9.99 23.8-9.79-1.21-10.88-8.19-22.58-19.82-22.73zm194.04 6.08c1.41 0.05 2.85 0.38 4.33 1.04 16.66-3.86 29.65 21.49 22.82 29.42 5.27-34.41-53.18-33.64-51.01-4.54-0.76 4.99-1.66 27.19-8.05 20.09 6.15-10.47 6.58-26.15-4.02-33.95-15.87-5.91-31.96 5.12-41.28 17.4-2.36 3.29-4.35 7.11-8.12 9.01 9.14-18.41 30.5-37.41 52.32-28.72 9.12 14.11 19.42-10.32 33.01-9.75zm87.47 0.86c-15.66 0.31-24.43 25.73-15.38 36.67 16.49-2.62 30.47 25.69 42.59 8.58 2.61-1.78 7.25-2.36 8.44-5.15-5.52-15.9-14.8-31.93-30.58-39.34-1.75-0.55-3.45-0.79-5.07-0.76zm-343.28 1.99c-6.91 0.05-9.73 9.16-10.67 15.91-6.71 15.51 9.28 1.37 15.2 9.28 17.31 6.65 4.96 37.13 25.7 36.23 5.69-22.07-3.94-49.3-24.77-59.86-2.05-1.1-3.87-1.57-5.46-1.56zm-82.13 26.02c-15.02-0.14-15.29 20.39-15.43 30.75 2.9 2.79 4.49-6.48 8.86-5.83 19.19-1.78 27.27 21.65 28.8 37.19 0.72 5.38 4.49-1.52 6.33-2.98 3.34-4.74 10.36-7.42 11.35-13.28-4.19-20.31-18.61-41.55-39.91-45.85zm379.69 7.28c-10.2 0.15-20.11 8.69-17.26 20.96l1 0.25c2.81 8.71 2.85 17.83 2.83 26.9 5.4-6.44 15.51 3.77 23.77-0.41 11.76-5.73 29.03 5.58 37.91-5.35 3.05-7.98 8.09-14.82 13.47-21.35-9.55-10.84-28.7-21.87-42.67-12.59-9.17 10.24-4.71 25-0.07 36.21-5.31-1.99-6.3-9.44-8.85-14.1-0.53-8.08 0.8-15.9 4.34-23.16-3.71-5.21-9.13-7.43-14.47-7.36zm95.52 6.2c-1.11-0.03-2.29 0.08-3.54 0.36-20.01 2.87-34.43 20.23-42.89 37.46 15.63-5.38 54.96 10.38 60.59-14.21 1.22-9.65-3.39-23.31-14.16-23.61zm-242.62 2.04c-8.22 0.01-15.97 6.66-21.04 12.98-5.42 5.81-3.48 35.44-0.4 19.63 2.65 2.43 5.13 5.06 7.72 7.59 7.84 0.88 15.68 1.88 23.55 2.43 13.51-9.75 9.89-30.16-1.54-40.16-2.76-1.73-5.55-2.47-8.29-2.47zm285.48 0.96c-0.9 2.08-0.66 6.23-3.83 5.93-9.5-1.82-13.16 9.21-21.74 10.91-0.9 4.59-1.88 9.15-2.79 13.75 4.72-7.92 13.27 2.46 20.25-2.51 0.51-0.05 1.53-0.16 2.05-0.21 9.2-5.33 12.96-19.37 6.06-27.87zm-331.7 0.81c-8.69-0.07-17.97 6.68-22.72 14.67-2.69 5.33-4.84 11.07-4.49 17.17 14.16 4.05 29.22 4.73 43.89 5.4 5.17-8.67-1.89-19.33-2.77-28.57-3.69-6.14-8.69-8.63-13.91-8.67zm-289.82 8.42c7.9 3.29 14.09 11.75 15.95 20.03-7.54-3.27-9.42-14.65-15.95-20.03zm390.58 1.3c-1.56 0.01-3.21 0.25-4.96 0.74-14.47 2.34-27.94 13.19-33.16 26.67 13.77 4.09 33.92 7.38 50.04 4.73 8.88-11.84 3.11-32.3-11.92-32.14zm-204.03 94.48c-3.98 0.09-7.92 1.14-11.52 3.1-15.41-0.3-24.27 18.2-18.02 31.54 7.58 2.16 15.01-2.23 21.72-5.22 8.36-7.29 14.93-16.8 17.03-27.82-3-1.14-6.12-1.67-9.21-1.6zm110.41 56c-14.82 0.17-23.1 19.69-11.4 30.01 6.9 10.39 5.03-4.25 2.89-9.14 7.87 6.88 3.97 18.43-2.24 25-16.34 12.89-36.36 37.6-16.95 56.96-2.59 1.48-8.62-9.16-11.93-10.26-5 11.89-1.99 26.7-7.25 39 26.88-5.38 55.25-0.45 81.37-10.31 12.16-4.54 26.26-11.77 38.42-2.94 11.65 6.03 26.28 0.5 36.39 10.09 10.3-1.01 10.84-12.26 8.21-20.11-15.12-21.49-42.77-15.36-63.44-13.16 14.9-9.85 32.69-17.46 41.48-34.06 1.82-3.66 7.19-13.12 5.17-4.17 13.48-2.66 21.15-24.39 3.64-26.9-6.63 9.01-19.31 11.74-23.1 22.99-9.95 19.37-29.51 31.41-50.83 34.3 18.48-12.73 41.92-20.92 51.8-43.3 0.99-5.42 10.43-16.23 6-5.36 8.48-4.45 15.34-15.03 11.03-24.59-11.94-15.23-36.64-1.98-40.4 14.07 3.94-1.22 11.76-7.01 6.85 2.55-10.73 7.64-23.26 12.86-36.42 14.29-1.75 9.05-6.81-5.16-6.36-9.1-0.88-13.81-3.95-34.67-21.47-35.81-0.49-0.04-0.98-0.05-1.46-0.05zm170.54 37.49c-9.96 0.24-21.07 8.78-13.69 18.43-4.26 17.24 11.35 33.38 3.71 50.04 2.4 10.6 21.4-4.79 22.59-14.11 5.25-10.66 0.16-27.78-11.51-15.9 7.05-8.34 15.77-20.26 10.54-31.66-1.82-4.64-6.05-6.65-10.68-6.8h-0.96zm51.54 6.5c-0.47-0.03-0.96-0.03-1.47 0-1.67 0.09-3.53 0.46-5.59 1.17-21.31 5.96-20.69 31.04-21.52 48.45-3.39-8.01-7.11-3.91-6.51 3.6-0.08 0.49-0.24 1.46-0.33 1.94-2.7 3.62 5.55 5.57 8.55 6.15 13.79 2.62 25.91-9.79 26.25-23.16-11.59 5.33-8.77-3.04 1.3-6.41 12.17-6.7 13.92-31.02-0.68-31.74zm-82.84 6.57c-1.06-0.01-2.18 0.07-3.38 0.26-12.83 4.93-12.16 23.83-7.89 34.93 3.05 4.1 6.33 8.09 9.13 12.39-6.76-3.95-14.85-3.11-22.31-2.28-0.08 4.51 7.46 5.75 8.16 10.99 9.66 6.8 27.25 5.41 33.55-5.33 1.78-8.91 3.2-18.55-1.01-27.03-2.29 3.26-4.58 6.54-7.67 9.12 7.78-10.9 7.29-32.87-8.58-33.05zm-72.41 74.24c-7.6 18.06 7.69 9.53 17.03 5.82-1.34-5.4-11.59-5.22-17.03-5.82zm-561.17 56.7c-0.65 1.71-1.63 3.27-2.85 4.65 2.32 2.22 4.52 4.58 6.55 7.1-21.84-5.92-44.26 3.7-65.449 8.57 2.537 0.88 5.062 1.78 7.599 2.7l0.987 0.02c8.653-2.14 20.603-10.37 27.563-5.59-32.613 16.41-65.512 40.99-71.212 79.62 0.588 1.63 2.774 1.39 4.086 2.14-2.637-23.38 18.539-34.59 33.639-45.76-9.213 17.47-25.875 34.82-17.287 57.22 1.75-5.7-0.664-15.22 6.486-17.77-2.075 7.33-4.036 15.53-0.861 22.87 0.887-2.65 1.675-5.31 2.375-7.97 2.137-27.11 5.912 10.77 14.886 13.49 14.418-23.83 31.148-47.27 54.488-63.09 1.21-0.99 2.57-1.89 3.39-3.25 0.76-4.04 1.05-8.2 1.53-12.24 0.8-8.5 4.32-16.19 8.75-23.29-3.56-4.93-8.04-9.09-11.76-13.9-1.22-1.7-2.13-3.6-2.91-5.52zm-51.462 26.72c-7.925-0.28-14.688 5.19-21.463 8.71 0.887 0.84 1.775 1.68 2.65 2.54 6.563-3.27 12.163-8.13 18.813-11.25zm412.37 148.43c-2.07 0-4.25 0.35-6.51 1.1-31.45 13.35-39.36 53.58-27.3 83.08 2.54 2.55 5.07 5.14 7.67 7.66 1.57 1.61 3.24 3.14 4.63 4.93-16.64 29.47-18.2 65.79-41.52 91.89-11.73 16.4-30.85 44.2-10.25 60.6 10.91 2.5 21.63-3.2 30.11-9.5 41.67-41.4 58.71-100.71 99.41-142.73 11.55-13.27 24.99-26.62 26.89-45.11 3.5-11.93-3.98-28.59-17.11-28.77-1.36-0.02-2.78 0.14-4.26 0.5 2.2 20.97-14.69 35.24-30.44 45.46-0.77-0.75-1.52-1.49-2.25-2.21-0.3 0.17-0.6 0.33-0.9 0.47 0.3-0.14 0.6-0.3 0.9-0.47 13.05-9.18 25.16-23.08 25.33-39.83 0.52-15.08-18.16-25.83-30.76-17.9 2.66 7.68 3.69 16.1 1.74 24.08-5.18 11.17-13.3 22.81-25.28 27.16 6.46-9.8 15.44-17.95 19.6-29.21 4.09-14.09-5.19-31.17-19.7-31.2zm2.37 62.58c-0.33 0-0.65 0.01-0.98 0.03 0.33-0.02 0.65-0.03 0.98-0.03zm1.17 0.03c0.05 0.01 0.11 0.01 0.16 0.02-0.05-0.01-0.11-0.01-0.16-0.02zm-2.56 0.05c-0.26 0.03-0.52 0.07-0.78 0.11 0.26-0.04 0.52-0.08 0.78-0.11zm3.42 0.05c0.45 0.06 0.9 0.14 1.35 0.23-0.45-0.09-0.9-0.17-1.35-0.23zm-4.64 0.15c-0.27 0.06-0.54 0.13-0.81 0.21 0.27-0.08 0.54-0.15 0.81-0.21zm-1.2 0.32c-0.4 0.13-0.8 0.28-1.2 0.46 0.4-0.18 0.8-0.33 1.2-0.46zm11.01 0.89c0.13 0.04 0.27 0.1 0.4 0.15-0.13-0.05-0.27-0.11-0.4-0.15zm1.95 0.75c0.15 0.06 0.3 0.13 0.45 0.19-0.15-0.06-0.3-0.13-0.45-0.19zm4.27 1.75c0.4 0.16 0.79 0.3 1.18 0.45-0.39-0.15-0.78-0.29-1.18-0.45zm1.81 0.68c0.6 0.21 1.2 0.4 1.79 0.56-0.59-0.16-1.19-0.35-1.79-0.56zm10.29 0.25c-0.2 0.09-0.4 0.18-0.6 0.25 0.2-0.07 0.4-0.16 0.6-0.25zm-0.95 0.37c-0.18 0.06-0.37 0.12-0.55 0.17 0.18-0.05 0.37-0.11 0.55-0.17zm-0.91 0.26c-0.19 0.05-0.38 0.09-0.57 0.12 0.19-0.03 0.38-0.07 0.57-0.12zm-5.22 0.01c0.1 0.02 0.19 0.04 0.29 0.05-0.1-0.01-0.19-0.03-0.29-0.05zm4.34 0.16c-0.24 0.04-0.48 0.06-0.72 0.08 0.24-0.02 0.48-0.04 0.72-0.08zm-2.63 0.08c0.17 0.01 0.35 0.02 0.53 0.03-0.18-0.01-0.36-0.02-0.53-0.03zm1.73 0.02c-0.29 0.02-0.58 0.02-0.87 0.02 0.29 0 0.58 0 0.87-0.02zm-27.95 34.67c9.46 6.33 0.34 31.88-12.54 28.54-6.45-9.05 0.43-22.11 8.14-28.36 6.39-0.09-7.82 10.15-6.93 16.09-4.37 23.42 19.21-6.84 11.33-16.27zm21.36 3.82c-2.72 7.32-13.33 11.89-9 20.96 7.62-3.39 8.43-13.35 11.29-20.13 2.06 8.61-2.02 24.9-13.48 24.84-4.27-10.01 1.82-21.24 11.19-25.67zm-491.6 50.67c-0.775 0.9-1.55 1.9-2.337 2.9-25.476 36.4-25.375 86.6-10.95 127.3 10.888 36.5 57.111 46.1 88.832 33.1 12.03-8.1 22.84-27.1 10.67-39.4-17.85-9.7-36.016 4.9-49.791 15.1 8.75-19.4 39.651-31.4 56.301-14.9 8.61 10.2 4.55 24.8-0.74 35.6 22.74 3.4 59.81-22.2 43.38-49.6-13.78-11.2-30.95-4.1-44.17 3.9 10.59-13.5 33.68-18.6 46.84-6.4 9.9 9 9.49 23.9 4.91 35.6 21.57-3.8 35.21-30.7 16.24-46.8-30.55-22.2-68.88-3.5-99.909 8.3-18.5 6.4-34.927 17.2-49.352 30.3 8.913-18.3 28.788-28.4 46.25-37.2 1.388-0.9 2.751-1.8 4.139-2.7-23.713-4.8-44.575 9.2-64.063 20.2 2.3-3.4 9.175-5.2 6.625-10.2-12.15-33.7-8.15-70.9-2.875-105.1zm434.48 40.7c10.1 2.4-0.07 22.4-7.67 23.2-7.16-7.2 0.98-18.6 7.67-23.2zm0.02 2c-3.92 4.4-8.56 9.6-7.93 16 5.07 0.5 12.85-12.5 7.93-16zm-386.59 77c1.5 3-11.326 8-13.438 14-9.088-1.5 9.925-12.6 13.438-14z" transform="scale(.8)" fill="#fdf4af"/>
<path d="m529.38 9.7906c-8.11 14.08-22.04 35.23-41.48 40.3 2.28 3.21 7.4803 1.07 10.97 1.85 7.59-12.99 33.599-21.45 30.509-42.15zm-56.48 35.268c-38.02 15.32-74.08 52.1-68.5 96.3 4.22-1.38 6.2297-5.85 9.5797-8.5 4.27-5.04 9.27-9.4688 13-14.969-3.86 1.29-10.899 6.0397-11.509-1.0703 2.16-7.23 11.39-11.9 11.32-20.78 11.92-19.819 31.04-33.891 46.11-50.981zm31.35 14.281c-10.77 12.261-11.08 29.55-18.38 43.66-1.36 15.33-16.651 23.78-22.861 37 27.02-18.1 37.201-50.039 41.241-80.659zm-369.79 21.854c-2.827 0.08828-5.711 1.8641-6.7859 4.5266-7.8 16.2-4.001 36.94 7.139 50.57-0.81 3.84-4.4597-2.1803-5.8797-3.5203-0.15 0.56-0.43032 1.6894-0.57032 2.2594 5.1 36.31 19.421 73.14 50.441 95.17 31.42 27.39 72.29 40.61 113.38 43.57-8.54-10.88-23.769-3.63-34.059-11.05-2.22-3.01-21.68-1.8-13.77-7.2-5.4-1.73-10.511-4.1997-15.791-6.2297-4.35-1.52-8.2491-4.01-12.289-6.15-17.26-1.46-27.46-17.401-39.97-28.461-20.07-19.39-28.36-46.34-34.3-72.55-0.08-2.45-0.0106-4.91 0.009-7.35 0.07-1.65-0.14-3.3097-0.8-4.8297-0.58-1.49-1.309-2.9194-1.889-4.4094-0.07-0.18-0.20096-0.55124-0.26096-0.73124-0.19-0.56-0.57-1.69-0.75-2.25 0.05-0.35 0.16096-1.0594 0.21096-1.4094-0.2-1.17-0.70064-2.2106-1.4906-3.0906 0.61-1.27 0.33096-2.2791-0.83904-3.0391l0.15936-0.86093c0.24-1.12 0.48032-2.24 0.72032-3.35 0.01-0.21 0.029-0.64 0.039-0.85-0.22-1.48-0.65968-4.4397-0.87968-5.9297 0.06-0.63 0.19-1.91 0.25-2.55 0.94-4.83 2.9406-9.4891 2.7406-14.489 0.01-1.32-0.0706-2.6409-0.14064-3.9609-1.2525-1.335-2.9273-1.8889-4.6234-1.8359zm12.403 29.797c0.51 4.33-4.7397 12.71 2.5703 12.25 0.58-0.14 1.7403-0.43031 2.3203-0.57031 0.55-0.11 1.6397-0.35093 2.1797-0.46093 14.48 23.2 34.701 43.45 59.641 55.2 20.43 12.76 42.549 23.001 58.989 41.041 3.58 3.9 7.1412 11.61 13.581 8.5703-12.22-21.03-31.281-37.39-51.181-51-29.12-17.98-63.24-31.38-82.63-61.28-3.24-4.45-2.819 3.68-3.789 5.8-4.62 0.93-0.69128-6.82-1.6813-9.55zm293.29 31.16c-0.4608-0.11958-0.839 0.79875-1.2 3.4938 6.45 0.9-9.5706 14.249-7.9906 17.339 6.194-3.6545 12.192-7.7404 18.045-11.97-5.1411 2.1136-7.4077-8.487-8.8547-8.8625zm8.8547 8.8625c0.706-0.29025 1.4662-0.82084 2.2859-1.65-0.7564 0.55499-1.5243 1.0996-2.2859 1.65zm-27.98 108.49c-0.7657 0.017-1.61 0.19375-2.5344 0.56407-5.16 3.42-2.7203 12.821 2.6297 15.031 7.3044-0.91531 7.3071-15.76-0.095-15.595zm-65.984 22.934c-9.5 0.02-8.4209 15.25-0.9109 17.58 9.01-0.34 9.6009-16.94 0.9109-17.58zm43.07 80.012c-1.2184-0.0661-2.9188 0.16532-5.2313 0.75782-5.42 6.67-6.9203 23.76 5.4297 22.42-6.7112-7.6825 8.3302-22.715-0.1984-23.178zm-31.97 370.1c-7.74 11.89-2.5506 26.329 4.2594 37.209 2.32 6.7-5.0906-0.57938-6.8906-2.6594-1.19 5.04-1.2497 10.319-2.8797 15.269-5.94 14.42-9.1191 30.791-19.689 42.741 1.27-4.64 2.8297-9.1806 4.5797-13.641-2.65-1.88-4.1403 4.23-6.5703 5.6 0.71-3.71 3.5506-6.629 4.0906-10.339-4.56-4.65-5.0712 3.2994-7.4812 5.8094-7.86 8.46-14.17 18.35-17.48 29.45-1.76-1.66-8.4994-8.8197-7.5594-3.6797 9.07 8.8 15.029 19.96 16.889 32.48 2.5 7.22 7.2209 15.371 15.311 16.841-16-17.49 0.0003-40.711 12.47-55.441 16.26-19.3 20.189-44.55 30.409-66.9-3.28-2.27-6.8397-4.3697-8.7297-8.0297-7.6-6.21-5.2997-18.039-10.73-24.709zm-321.12 70.78c-5.99 0.51-11.3 4.3394-14.1 9.6094-9.78 27.38-7.4603 58.68 0.92968 86.12 11.81-6.93 24.92-12.96 38.88-12.87 5.19-3.52 13.911 3.85 17.191-2.1-10.84-5.89-23.691-4.0997-35.091-0.97968 5.49-5.91 15.591-4.07 22.811-6.5 0.26-3.74-1.9413-7.3494-0.63128-11.059-15.15-17.45-32.179-37.14-29.989-62.22z" fill="#ccc9b7"/>
</g>
<path d="m344.21 146.91c-22.62 0.195-44.608 10.092-62.112 24.867-9.21 6.89-23.23 20.801-5.2797 26.061 11.06-19.55 30.17-47.65 56.93-35.55 12.93 10.85 32.21 12.599 45.42 1.3688-1.27-6.55-4.8903-12.79-12.27-13.53-7.5375-2.27-15.148-3.2822-22.688-3.2172zm-22.781 17.272c-2.6645-0.0519-5.4203 0.44844-8.311 1.7453-12.02 6.85-26.11 18.501-29.33 32.261 6.64-10.21 15.179-20.01 26.419-25.17 19.58-4.31 37.811 9.74 57.591 4.05 7.85-3.37 0.70968-4.1206-4.6703-1.8406-15.609 5.6447-27.31-10.765-41.698-11.045zm63.631 0.84531c-4.6061-0.093-14.732 9.4216-5.0828 6.0406 1.9-1.94 3.731-3.95 5.511-6-0.13624-0.0238-0.27952-0.0376-0.42816-0.0406zm47.759 135.48c-4.0532 0.078-8.7531 1.8453-11.972 3.6016-4.31 4.86-21.03 10.94-13.05 19 4.5 2.8 8.15 7.2209 13.35 8.7109 2.47-7.26-7.4203-9.4106-10.02-13.941 10.84-1.28 20.26-7.8503 27.83-15.32-1.5075-1.5375-3.7055-2.0984-6.1375-2.0516zm-75.545 59.884c-1.362 0.0178-2.7906 0.56657-4.2562 1.8484-2.17 1.84-6.1303 3.2091-6.7703 5.6891 14.29 11.73 2.1794 48.441 29.359 46.191 1.21-1.36 2.3906-2.7503 3.5906-4.1203-2.69-8.48 5.1994-26.55-7.0906-27.92 0.7 6.53 0.98 18.65-4.05 21.87 1.43-10.86 0.62-21.81-0.05-32.7-1.8515-4.2188-5.8686-10.921-10.733-10.858zm-233.42 238.63c-35.47 25.5-52.39 70.29-50.83 113.15 1.62 2.38 0 0 1.7406 13.9 0.89 23.54 14.05 44.049 25.05 63.909-6.15-1.54-11.37-14.069-12.88-1.0094-0.54 5.81-1.3803 12.17 2.1297 17.28-1.26 6.99-5.5603-4.37-6.2203-7.3-0.34-1.73-0.63936-3.4606-0.80936-5.1906-0.02-3.82 0.41872-7.5694 0.51872-11.359-9.7 4.8-21.399 8.1594-28.009 17.309-6.35 20.21 5.5194 41.171 20.109 54.531 9.94 8.78 25.691 1.0887 37.391-1.1813 16.4-9.08 43.97-13.449 47.23-35.889 1.09-11.17 1.551-22.601-0.83904-33.641-3.16-16.32-4.6103-32.83-5.6703-49.4-0.92-12.62-2.21-25.819 1.55-38.109 2.4-0.23 4.8594 0.47031 6.6594 2.1203-5.02 10.54-1.709 22.689-3.239 33.889-2.76 12.96 8.1594 13.471 16.909 9.7406 13.35-6.6 27.95-10.58 42.2-14.75-4.99 6.54-16.531 6.8194-23.941 11.409 1.63 0.38 3.291 0.67969 4.961 0.87969 14.25-4.59 30.18-2.6397 44.92-0.97969-0.75 8.78-21.881-2.5894-24.481 4.1906 24.64 8.74 41.341 30.44 64.381 41.83-3.55 3.67-14.281-5.0806-20.791-3.6906 3.41 6.05 10.26 8.4612 14.88 13.281 1.9 10 8.9197 18.219 11.03 28.319 5.8 14.3-1.5694 30.671 4.0906 44.831 7.69 9.07 34.28 0.96936 24.4-12.291-1.65-11.13-15.42 8.4903-5.7797 5.6703 11.54-4.41-7.4103 12.509-9.0203 1.589-1.94-27.86 22.581-49.299 41.391-66.209-0.15 3.09-0.23088 6.1897 0.039 9.2797 1.04-0.96 2.271-0.52904 3.461-0.13904 1.95-7.5101 5.9197-14.411 7.6297-21.931-6.53-1.32-13.281-0.70938-19.891-1.1094-0.62-5.55 17.22 1.4003 11.17-5.2297-14.99-13.53-8.6694-36.12-14.559-53.4-5.58-12.57-18.961-18.45-31.631-21.38-8.54-5.34-18.499-8.4906-28.589-8.5406-3.91 2.23-6.0406 8.0697-11.241 7.4297 3.42-9.82 13.21-16.899 18.7-25.939-22.59 4.25-45.789 4.2794-68.739 3.8594-45.64 2.72-74.721-40.63-85.381-79.73zm47.645 99.952c2.6205 0.15575 4.9725 3.8897 2.225 5.6484-6.36 5.37-6.9703 16.01-11.82 21.13-2.13-8.38 2.4603-19.729 8.4703-26.609 0.37128-0.14 0.75064-0.19099 1.125-0.16875zm-104.59 95.24c0.03584 0.00088 0.06832 0.008 0.10312 0.0109-0.13168-0.0115-0.26792-0.0125-0.414 0.008 0.10744-0.0147 0.21096-0.0213 0.31088-0.0187z" fill="#f72322"/>
<g>
<path d="m301.97 419.14c-12.176 0.0476-20.506 16.274-17.108 26.769 33.23 11.56 65.641 26.89 100.99 30.87 3.51-2.6 5.8303-10.15 1.6703-13.52-6.17-0.09-12.77 3.2609-18.68 0.0609 11.43-3.35 25.149-7.2903 31.119-18.57 3.7-9.02-5.35-14.98-12-18.82-4.28 4.93-18.149 11.69-8.1688 17.33 5.59 13.19 12.88-18.48 11.48-1.25-11.01 16.24-35.401 13.271-51.861 8.6109-15.07-4.54-36.969-9.8603-39.739-28.32 2.3-0.46 2.2891 2.3303 3.1391 3.7703 0.39-2.51 0.67-5.12 3.05-6.4-1.3332-0.36562-2.6327-0.53461-3.8922-0.52969zm106.08 23.99c-0.18 9.01-8.8706 12.46-13.141 18.63 4.93 2.07 2.1306 11.74-0.9094 16.4 27.89 2.64 59.86 3.4803 84.05-12.18-25.57 2.05-46.07-16.98-70-22.85zm-136.24 10.555c-2.0734-0.004-4.1593 0.1828-6.2609 0.61562-9.82 6.48-13.97 18.119-19.1 28.159-13.88 35.07-40.95 68.75-79.23 77.6-8.39 2.09-7.8606 12.331-8.2906 19.161 0.66 25.91 16.301 48.09 34.891 64.77-26.56-17.88-46.001-52.79-37.141-85.2-15.11 2.73-30.249 16.32-26.659 32.93 6.51 37.63 31.789 82.86 75.609 81.08 0.98-2.73 2.0506-2.8306 3.5406-0.34062 19.83 0.57 40.139 0.0403 59.439-4.9297 15.27-2.5 30.661-4.8097 45.941-7.5297-0.28-6-1.9094-12.98-7.6594-15.98-3.07 0.57-9.6006 5.1897-10.591 1.4797 13.89-11.1 19.499-28.831 28.759-43.441 8.94-19.24 23.65-36.77 29.65-56.83-31.78-0.62-67.649-15.65-79.559-47.4 3.84 1.84 5.1297 6.2297 7.6297 9.3797 21.82 28.81 61.41 32.811 94.85 29.511 7.59-1.78 15.321-2.8109 22.841-4.9109 17.86-4.08 35.239-11.479 53.839-10.669 2.03-2.8-5.4691-10.581-0.5391-13.041 4.12 8.45 5.5503 20.931 15.82 24.341 12.43 1.61 22.869-10.18 20.919-22.32-10.83-4.91-22.569 19.9-4.7688 10.62-1.84 6.24-11.541 10.009-15.091 2.7391-8.37-14.94-0.95-33.3 5-47.82-11.67 5.8-22.081 14.371-34.491 18.561 7.14-7.16 17.97-9.89 24.62-17.45-8.17 1.03-17.61 7.1697-24.2 2.5797 0.17 9.16-14.579-0.19031-15.439 4.7797-34.01 3.3-67.83-4.6997-100-15.03-7.25-2.25-14.261-5.2097-21.531-7.3797-10.783-2.4216-21.602-8.0122-32.798-8.0359zm285.5 42.675c-18.81 8.01-38.01 18.211-59.33 13.931-5.21-1.86-4.8703 3.7788-3.2203 7.5688 16.02-1.44 32.181-2.6088 48.231-0.96876 0.47-3.81-1.8012-7.12-2.0312-10.75 9.28 1.65 3.0203 18.849 12.52 20.589 11.22 7.62 23.12-4.7191 24.4-15.639-4.3 1.12-10.86 1.4688-12.82 5.8188 2.92 4.44 6.8306-0.37 9.1906-2.75-0.81 4.44-3.8097 10.71-9.2297 8.0203-11.48-5.45 6.6791-24.09-7.7109-25.82zm-291.01 14.88c5.0192 0.14383 15.031 4.0191 10.044 6.6703-4.6-3.66-23.981-2.1791-11.831-6.4891 0.455-0.14625 1.0704-0.2018 1.7875-0.18125z" fill="#547b4e"/>
<path d="m153 138.03c7.64 45.39 34.649 94.491 80.609 108.99 10.41-2.53 22.88-14.491 15.6-25.241-30.83-29.64-75.899-44.26-96.209-83.75zm94.23 86.241c5.93 8.11-8.23 21.209-17.15 18.089 9.73-1.13 14.96-9.4991 17.15-18.089zm183.26 65.144c-7.9748 0.13555-16.346 2.575-23.569 4.6562-9.79 4.06-18.341 10.579-25.891 17.939-3.12 3.65-6.5294 7.1009-9.0594 11.211 5.78 3.35 18.46-1.1309 20.57 2.8891-10.54-4.21-21.3 4.6-28.7-1.35-0.7227-0.12421-1.3543-0.21089-1.9422-0.27969-0.053-0.006-0.1023-0.009-0.1546-0.0141-0.5581-0.0618-1.0558-0.0973-1.5032-0.10937-8.6411-0.76389-17.345-0.13735-26.011-0.36563 8.28-6.81 30.57 7.16 36.75-4.75-8.94 1.65-16.499-5.1506-20.939-12.241-0.27 0.48-0.8003 1.4294-1.0703 1.9094 0.89 0.96 3.3397 4.1809 0.3797 2.9109-14.044-3.9112-28.757-6.2014-43.348-6.1484-18.76 0.0682-37.32 4.0091-53.992 13.358-6.48 8.8-12.739 17.81-17.119 27.88-0.58 2.87-2.2512 5.9003-1.0312 8.8203 8.22 4.56 3.0712 15.48 8.0312 22.18 8.75 13.71 20.02 25.861 32.43 36.331 2.07-3.32-6.5106-8.0112 1.7594-10.281-1.25-1.36-2.3797-2.8688-2.8797-4.6688 20.89 10 42.131 19.97 65.491 22.7 2.19 0.55 4.34 1.2088 6.5 1.8688 10.82 3.72 4.7291-0.89969 1.7391-6.9297 10.79 10.5 27.501 10.241 39.911 2.7609 11.41-4.98 18.07-16.211 27.93-22.881-3.03 5.76-7.4306 10.64-10.591 16.32 7.84-2.87 14.2-8.5997 20.83-13.48 7.04-5.45 10.851-14.359 17.841-19.509-4.49 8.47-9.8506 17.23-17.691 23.05-5.35 7.53 9.9812-5.89 12.881-7.15 12.81-15.69 31.13-28.251 37.7-48.091-3.3-1.53-10.301 0.26-14.811-1.2-9.25 1.78-15.42 10.99-26.1 11.02-2.31 9.67-7.09 18.579-14.55 25.259-5.18 6.89-15.88 4.6997-20.4 12.13-6.07 12.6-17.609 27.8-33.439 22.67-17.04-8.63-12.48-29.199-18.55-43.939-2.39-5.59-8.66-7.3503-13.35-6.7703 3.19-3.39 10.719-4.0009 15.169-7.3609 5.59-3.62 10.651-8.0391 14.461-13.539-12.74 0.57-24.99 4.2897-37.43 6.7297 10.6-5.92 24.149-6.5903 36.109-8.7703l0.8797-0.15c1.65-2.95 1.7597-6.4497 1.2297-9.7297-22.48 1.15-44.849 3.9794-67.019 7.8094 16.28-7.79 37.93-7.06 56.43-9.9 12.64 0.64 25.34-0.5 37.97-1.15-4.68 8.96-29.391-5.5588-24.511 11.731 5.09-0.22 10.05-1.6606 15.15-1.8906-2.44 5.09-11.43 0.91938-15.37 4.8094 8.89 14.5 27.551 14.991 42.411 12.211 10.24-1.42 16.239-10.25 20.409-18.6 1.72 4.35-2.6791 10.72-4.2891 15.93 8.73-0.99 18.16-2.1806 24.98-8.3406-12.44-5.63 9.4503-0.23907 6.9203-11.839-8.24 3.97-8.3509-1.71 0.4391-2.95 4.25-8.49-3.4694-5.0203-8.7594-3.3203 2.66-3.54 10.529-4.4297 6.5594-9.7797 10.13 4.57 19.24-6.16 28.82-8-4.95-9.1-20.539-12.281-28.159-4.9609-2.55 2.42-2.3609-1.3991-2.6109-3.1891-0.83 14.44-3.3597-5.8806-6.6797-8.3406-4.9962-3.9331-10.958-5.2211-17.161-5.1156zm3.1531 5.9828c4.1525 0.0538 8.5472 1.0531 11.967 1.8531 10.86 13.3-2.2194 30.18-13.509 37.97-4.2 3.01-8.5 0.72-10.95-3.4-5.2-1.49-8.85-5.9109-13.35-8.7109-17.08-3.09 6.7997-23.889 15.33-23.889 2.45-2.985 6.36-3.8772 10.512-3.8234zm53.338 16.283c-7.89 7.1-27.34 5.9997-25.07 19.98 10.03-1.49 20.091-2.9397 30.081-4.7797 2.54-5.55-2.6609-10.66-5.0109-15.2zm4.55 16.711c-11.5 3.65-32.919-1.3309-33.039 16.039 3.37 2.27 11.239-0.62031 16.339 1.2797 5.63-0.07 3.27-9.1497 5.8-12.63-0.38 7.19-2.0991 18.53 5.0109 7.4797-2.41 12.31 9.8091-7.8188 5.8891-12.169zm-135.99 0.69063c-0.1074 0.40119-0.2338 0.82229-0.386 1.2641 0.1531-0.44232 0.2774-0.86269 0.386-1.2641zm-0.6 1.8406c-0.041 0.1045-0.078 0.20608-0.1219 0.31251 0.044-0.10625 0.081-0.2082 0.1219-0.31251zm127.22 16.422c-3.3793-0.006-9.0625 4.7819-4.0781 8.8656l0.7203-0.0797c1.91-1.62 3.6603-3.4191 5.3203-5.2891 0.6344-2.5-0.4265-3.4942-1.9625-3.4969zm-131.1 56.664c0.1043 1.0347 0.16 2.0476 0.1531 3.0344 0.01-0.98681-0.049-1.9996-0.1531-3.0344zm-45.195 15.662c-2.38 1.28-2.66 3.89-3.05 6.4 3.45 9.01 13.181 14.32 22.581 14.42 17.58 2.52 42.029 10.61 51.909-9.8203-12.3 2.53-22.62-4.73-34.77-4.4-12.54 0.01-24.86-2.6-36.67-6.6z" fill="#f5c687"/>
<path d="m646.91 0c-27.012 5.2875-27.524 42.575-54.611 47.287-48.675 14.9-88.351 61.075-90.676 112.59-1.4375 5.325 4.2008 19.475-5.5117 14.963-14.412-6.4625-14.812 13.35-14.875 22.25-1.475 3.5875-4.2129 3.1375-6.0254 0.0625-8.9-25.762-31.463-48.025-59.275-51.312-44.938-5.225-101.09 25.575-102.21 75.15-3.625 0.2375-6.1504-3.0375-9.0879-4.6875-36.9-27.038-87.149-37.975-114.3-76.963-4.625-16.575 6.6379-46.038-14.225-54.088-30.225 12.262-37.014 57.475-14.951 80.713 1.775 1.675 6.3371 9.2004 7.3496 4.4004-13.925-17.038-18.674-42.963-8.9238-63.213 2.15-5.325 10.087-7.8133 14.262-3.3633 10.075 8.3625 9.6996 23.114 9.7246 34.951 1.2375 3.4125-3.6734 13.1 2.1016 11.938 1.2125-2.65 0.68633-12.812 4.7363-7.25 24.238 37.375 66.887 54.125 103.29 76.6 24.875 17.012 48.702 37.462 63.977 63.75 2.5125 3.6 3.4746 11.05 8.5996 10.912-0.475-7.6625-2.4496-15.126-4.9121-22.363 9.325 8 22.162 8.5883 4.7871-0.0117 12.95-4.4125 23.599-13.088 35.199-20.062 2.4125-0.4 7.7246 0.31328 4.7246 3.6133-6.6875 8.2625-9.9 25.861-1.25 31.898-2.95-12.625-0.94961-31.312 16.025-31.562 5.6125-0.675-12.249-9.1734 2.1758-4.5859 14.775 0.55 23.625 13.362 35.725 19.625-7.6875-13.112-22.087-22.702-37.387-23.664-3.3-0.75-8.7133 2.2875-9.9883-1.9375 28.6-14.65 60.188-27.899 92.963-25.486 11.888 3.25 26.037 6.6504 33.324 17.4-7.2-2.6-14.024-6.8125-21.986-6.4375-7.6875-1.5-26.138 5.5109-16.525 14.648 3.325 2.45 12.861 14.639 8.9863 5.2891 6.85 1.025 10.75 7.5367 16.812 10.262-4.2625-11.75-15.036-19.538-26.961-22.15 7.6-2.2625 15.425-4.3617 23.438-4.1992 5.6375 8.775 0.33594 8.5492-5.2891 8.5117 41.188 24.612 57.138 75.925 52.801 121.65 4.9375 8.975 6.2 8.0375 14-0.25 2.4-7.225-4.2621 1.1121-6.8496 2.5996 1.2-6.8 1.2379-13.736 1.2754-20.611 6.5375-7.8875 6.4121-20.462 16.412-25.75 11.888-10.775 35.699-0.30156 31.762 16.523-3.825 6.7625-11.938 10.112-15.5 17.188-5.5875 12.5-7.7738 25.125-24.986 15.65 6.8-5 15.325-8.7621 17.688-17.725-6.55 4.175-12.702 8.9492-18.852 13.699-3.9625 5.475-15.973 7.8-12.711 16.125 9.525-9.15 29.012-5.1738 35.199 6.2012-11.975 2.3-23.363 15.712-36.025 10 4.9625 6.6875-4.8742 7.7996-8.1992 12.225 6.6125-2.125 16.262-6.4621 10.949 4.1504-10.988 1.55-10.849 8.65-0.54883 3.6875 3.1625 14.5-24.2 7.7613-8.6504 14.799-8.525 7.7-20.312 9.1883-31.225 10.426 2.0125-6.5125 7.5113-14.475 5.3613-19.912-5.2125 10.438-12.712 21.475-25.512 23.25-18.575 3.475-41.901 2.8613-53.014-15.264 4.925-4.8625 16.163 0.35078 19.213-6.0117-6.375 0.2875-12.575 2.0883-18.938 2.3633-0.24567-1.107-0.45028-2.0887-0.63086-2.9922v-0.002c-2.3456-16.811 25.719-1.0438 31.27-11.67-15.788 0.8125-31.663 2.2375-47.463 1.4375-23.125 3.55-50.187 2.6375-70.537 12.375 27.712-4.7875 55.673-8.3242 83.773-9.7617 0.6625 4.1 0.52539 8.4746-1.5371 12.162l-1.0996 0.1875c-14.95 2.725-31.887 3.5629-45.137 10.963 15.55-3.05 30.862-7.6996 46.787-8.4121-4.7625 6.875-11.089 12.399-18.076 16.924-5.5625 4.2-14.973 4.9637-18.961 9.2012 5.8625-0.725 13.7 1.4754 16.688 8.4629 7.5875 18.425 1.8875 44.136 23.188 54.924 19.788 6.4125 34.211-12.588 41.799-28.338 5.65-9.2875 19.025-6.5496 25.5-15.162 9.325-8.35 15.3-19.487 18.188-31.574 13.35-0.0375 21.062-11.55 32.625-13.775 5.6375 1.825 14.389-0.4125 18.514 1.5-8.2125 24.8-31.112 40.501-47.125 60.113-3.625 1.575-22.789 18.35-16.102 8.9375 9.8-7.275 16.501-18.225 22.113-28.812-8.7375 6.4375-13.501 17.574-22.301 24.387-8.2875 6.1-16.237 13.262-26.037 16.85 3.95-7.1 9.4508-13.2 13.238-20.4-12.325 8.3375-20.65 22.377-34.912 28.602-15.512 9.35-36.401 9.6738-49.889-3.4512 3.7375 7.5375 11.351 13.312-2.1738 8.6621-2.7-0.825-5.3875-1.6484-8.125-2.3359-29.2-3.4125-55.751-15.875-81.863-28.375 0.625 2.25 2.0371 4.1359 3.5996 5.8359 6.55 5.575 13.875 10.039 21.412 14.076-14.512 4.7-28.25 19.949-19.225 35.299-36.325-3.9375-47.112 39.638-58.699 65.525-9.4875 25.125-29.251 45.414-51.551 59.764-20.625 10.55-45.638 4.9234-65.938 16.648-6.7375 6.2875-11.188-2.8-15.688-6.75-2.55-1.8-7.8363-12.488-8.8613-5.125 0.775 1.925 1.6871 3.8254 2.9121 5.5254 3.7125 4.8125 8.1992 8.9629 11.762 13.9-4.4375 7.1-7.95 14.787-8.75 23.287-0.3981 3.2971-0.67489 6.6743-1.1738 10.002-0.19826 0.64415-0.33465 1.3773-0.36328 2.2363-0.8125 1.3625-2.1742 2.2625-3.3867 3.25-23.338 15.825-40.076 39.263-54.488 63.088-8.975-2.7125-12.749-40.601-14.887-13.488 2.175 8.725 10.936 15.163 9.9609 24.525-5.925 13.662-9.4246 28.25-10.975 43.062-1.275 18.375-2.9754 37.688 3.9121 55.275 4.8625 18.825 14.013 35.761 24.088 52.236-11.175 7.675-25.912 8.1375-36.662 16.188-7.35 12.638-24.75 9.1129-34.662 19.088-23.035 16.5-29.198 45.8-33.81 72v30.9c3.125 24.475 10.763 49.337 28.488 67.262 21.388 26.825 61.461 25.838 90.711 14.113 16.688 1.3 34.35-1.8121 47.812-12.35 11.888-10.188 32.064-11.563 37.826-27.926 9.5-11.775 7.8125-31.763-4.4375-40.838-24.125-15.65-54.7-8.1988-80.812-2.7363-7.6875-6.6625-21.325-9.6629-22.062-21.65 39.837-3.8375 84.599-15.85 109.67-49.125 9.9-31.438-4.075-64.087-5.125-95.387 19.788-0.15 38.813-8.3 58.463-7.625 27.362 11.875 52.025 31.062 64.875 57.887 27.662 12.225 23.838 45.863 23.275 70.65-2.1 14.838 2.6992 35.249 19.949 38.424 12.188 5.7875 22.425-6.1371 32-7.9121 5.7625 34.788 49.189 37.976 70.951 17.051 29.375-30.362 45.3-70.45 65.725-106.75 20.725-29.725 60.813-48.3 64.801-87.713-0.725-17.888-14.375-36.862-34.025-35.312-5.85-17.45-25.7-25.687-41.562-16.037-28.575-24.038-61.862 11.236-65.975 40.424-30.575 16.975-3.8004 50.125-16.65 75.062-20.475-11.588-13.413-45.475-16.025-66.475-9.925-33.875-49.637-37.787-77.574-48.762-4.8125-0.4375-0.32656-4.0625 0.89844-6.25 9.1625-17.212 29.85-21.976 47.65-21.764 3.8875-2.4 5.3262-7.2613 5.0137-11.611-1.5-9.275-7.525-16.212-14.875-21.625 23.45-35.625 46.738-71.976 60.625-112.68 1.275-7.875 11.462-3.4125 17.188-4.8125 14.962 0.2375 29.336-4.4988 43.674-8.1738 19.988-4.875 39.138-12.963 59.088-17.738 7.1 9.675 15.15 24.151 29.312 21.926 11.45-1.825 15.974-13.126 19.137-22.801 18.312 2.275 36.277-2.3508 54.414-3.8633 11.1-1.95 13.587 14.288 24.887 14.088 15.725 5.5125 30.35-9.1996 27.912-24.787 3.9125-7.65 12.5-9.8379 18.375-3.2754 9.4375 8.2 22.751-0.75039 25.551-11.213 16.15-7.4375 37.637 0.23867 52.225-13.861 16.5 11.225 38.626 0.59961 43.301-17.963 14.262-5.5875 33.65-2.9133 47.375-12.613 5.2-8.775 12.748-24.575 5.6484-32.312 5.8625-43.562 26.2-87.499 30.213-132.57 9.5625-4.8375 12.014-15.788 13.576-25.525 3.85-11.95 2.5617-24.311 13.512-33.424v-7.6016c-2.7-6.7625-13.624-11.662-7.7617-19.475 8.45-13.35 0.71172-31.562-14.676-34.938 10.912-20.575-2.0496-54.912-28.787-49.074-16.3 11.962-11.837-17.55-24.662-23.475 14.35-29.438-28.151-48.775-45.576-24.75-2.2625-14.738-16.024-30.2-32.111-22.963-5.525-15.662-22.413-19.526-37.176-14.826-10.4-18.062-33.837-6.8371-44.387 5.2129-20.475-13.438-42.976 7.4383-54.676 23.113-13.812 0.875-26.262 8.5867-34.699 19.012-21.812-0.6125-32.164 19.839-38.602 37.139-13.812 9.125-21.349 24.725-24.361 40.6-7.5125 2.3875-14.776 5.4-20.176 11.5-10.1-13.35-15.137-31.364-30.1-41.076-7.2-4.1-13.326-10.361-10.551-19.361 6.4875 3.175 12.314 7.4754 18.639 10.963 1.3875-12.3-20.689-18.089-14.264-29.639 35.288-21.475 77.801-40.375 92.389-82.6 12.95-29.7 0.61289-73.149 33.9-91.012 15.14-8.849 18.26-38.35-0.44-43.7zm5.8203 9.0352c3.092-0.052344 6.1453 0.87813 8.9922 3.2031 3.8625 25.875-28.649 36.45-38.137 52.688 4.2625-1.925 7.9875-5.1129 12.688-6.0254-1.0125 5.4125-3.7254 10.288-5.9629 15.275-5.05 38.274-17.77 78.204-51.55 100.82-4.65 4.1875-9.6984 7.9117-14.648 11.699-8.2125 6.025-16.664 11.863-25.414 17.025-1.975-3.8625 18.051-20.549 9.9883-21.674-9.575 12.6-19.062 25.325-25.037 40.1-4.475-1.525-8.8129-3.4-13.4-4.5 3.475-10.775 7.125-24.75-1.5-33.975 4.1375-4.7125 7.6746-9.8875 11.287-15 3.525-4.575 20.538-19.812 13.688-21.312-4.6625 6.875-10.912 12.411-16.25 18.711-4.1875 3.3125-6.6996 8.9-11.975 10.625-6.975-55.25 38.1-101.23 85.625-120.38 15.288-6.5625 28.675-17.161 37.312-31.523 5.4-6.6188 15.019-15.609 24.295-15.766zm-463.04 144.3c-0.725 0.175-2.1754 0.53789-2.9004 0.71289 1.3125 59.112 33.726 117.78 83.551 149.88 5.05 2.675 9.9238 5.7875 15.361 7.6875 6.6 2.5375 12.988 5.6246 19.738 7.7871 10.362 1.7875 24.838 11.1 32.238-0.72461 2.0375 2.8625 2.7125 9.3113 7.3125 8.3613-3.3625-19.975-16.139-37.799-31.076-51.111-39.838-42.55-109.17-59.863-124.22-122.59zm580.94 1.9414c1.5274 0.0178 3.0258 0.16836 4.4648 0.45898 5.075 0.3375 9.4875 8.2746 2.5 10.475-9.55 6.9125-14.875 17.75-22.938 26.1 7.775-8.0125 18.512-5.5496 26.662 0.33789-2.3125-6.05-9.3-7.2254-14.75-8.9629 2.65-16.512 41.212-34.151 49.037-10.551 2.225 18.05-21.524 11.564-28.361 21.977 12.9-9.725 30.675-4.8629 32.75 12.537 2.15-8.35-3.8016-15.662-10.164-20.225 9.75-14.912 35.789-13.213 37.852 6.2871 6.4375 15.725-16.951 6.9125-20.426 20.125 12.2-13.988 33.575-5.3512 31.588 13.736 4.0875-9.2375-2.5254-17.05-7.8379-23.625 14.8-20.8 53.813-12.412 45.213 15.738-7.9375-5.575-31.95 0.2375-29.5 9.25 19.688-23.8 46.262 6.6879 39.699 29.4-0.125 11.138-9.0875-12.675-18.938-9.5254-12.3 0.175-24.687 7.525-29.949 18.688 10.575-13.162 36.138-24.037 45.088-3.5996 2.1625 4.1875 2.3488 19.7 4.3613 8.6504-0.3-3.35 0.22578-6.6766 1.4883-9.7891 6.4125-6.4625 15.275-14.888 25.275-11.812 20.475 2.5125 23.161 39.389 7.6738 47.352-3.1125 0.575-3.1246 1.1371 0.0254 1.5371 25.912-7.2125 30.725 27.412 15.525 41.512-2.6375 2.5125-5.1262 5.1387-7.7637 7.6387-2.8875 2.7125-5.9113 5.2621-9.0488 7.6621-0.4375-1.7125-0.91367-3.425-1.3887-5.125-2.6125-5.4625-2.3863-17.55-9.4238-13.713 5.025-16.025 12.887-37.612 0.0742-52.574-15.4-11.512-32.562 2.5609-41.912 14.836-10.462-6.85-27.837-8.2242-32.637 6.3633-6.325 9.475 3.4371 30.112-12.213 30.938-8.0625-8.35-24.3-12.475-31.537-1.0371-1.8125 3.1375-3.2633 6.4371-4.8633 9.6621-10.75-8.3-24.962-3.6-33.662 5.5-1.0625 1.5-1.7129 3.2242-1.2754 5.0742 9.3125-12.612 30.725-18.636 37.537-0.0488 0.4625 6.275 2.6621 12.586 1.5371 18.861-5.7875 10.712-21.661 7.0262-32.211 7.6387-2.6625-6.7375-12.062-25.263-19.188-13.801 7.7125 1.45 17.149 4.7887 15.949 14.576-8.1625 1.075-16.4 1.3742-24.6 1.4492 1.5625-11 7.2242-24.349-4.4258-32.449-15.912-8.6125-31.749 2.2992-43.736 11.949-1.7-10.688-5.2387-24.412-17.201-27.537-11.95-3.925-20.987 6.8496-27.287 15.35-9.2625 9.4875 5.9617-8.5246-7.4258-5.1621-5.3625-6.475-13.037-11.1-21.699-9.875 0.1-6.575 1.8133-13.6 6.1133-18.725 10.862-22.425 44.15-14.213 42.938 10.662 6.5375-1.1625-2.9137-19.8-8.6387-24.525-3.625-15 18.663-32.876 32.963-23.363 7.1875 5.375 9.8379 14.313 12.275 22.551 4.075-2.5125-0.71211-8.9-1.3496-12.812-0.5-1.1375-0.98789-2.2754-1.4629-3.4004-8.6-18.65-35.663-12.788-43.113 4.1875-2.6 4.05-1.8488 12.563-8.7363 9.5508-5.2625 0.4875-10.376 1.8125-15.426 3.25-8.6125 5.1-12.875 13.824-16 22.887-15.512-6.5-13.762-32.824-30.412-39.049-6.3875-3.6625-0.87617-25.8 2.3613-14.15-1.9125-20.55 29.377-41.762 42.789-19.6 2.675-17.575-32.038-8-19.113-19 3.6-14.212 16.713-28.326 32.551-20.113 0.4 8.8125-15.814 13.037-16.289 24.074 8.7-7.35 13.988-20.762 27-21.912 14.512-4.4375 28.489 15.738 16.664 26.65-15.95-14.688-39.875 1.2492-42.588 20.074 7.5-8.975 13.325-23.636 27.588-22.148 13.212-2.2 15.462 13.174 22.762 19.637-0.275-7.25-10.338-14.175-3.75-20.662 11.438-15.325 38.125-9.05 43.5 8.5625 1.8125 2.675 1.3375 7.9113 5.125 8.4238-2.1-15.725-15.138-31.149-32.562-28.361-5.95 0.7875-1.9633-6.6875-2.6133-10.188 1.775-11.088-0.0113-23.813-11.111-28.801 9.9375-14.262 26.549-27.499 44.986-24.387 8 1.35 4.1875 13.599 8.75 16.424-5.4602-16.018 12.097-28.155 26.861-27.982zm-610.17 13.508c-5.3125 96.762 86.876 176.14 179.83 176.16 4.0875-3.3875 29.612 6.0887 24.949-2.7363-51.38-3.7-102.46-20.22-141.74-54.46-38.78-27.54-56.68-73.58-63.05-118.96zm30.801 3.75c25.388 49.362 81.724 67.638 120.26 104.69 9.1 13.438-6.4875 28.388-19.5 31.551-57.46-18.13-91.22-79.51-100.77-136.24zm543.35 10.105c-0.94977 0.0119-1.9297 0.11562-2.9375 0.32031-5.975 1.7-18.812 5.1504-16.75 11.963 13.162-18.488 41.563-4.4008 33.988 17.574 7.3945-9.5742-0.0543-30.036-14.301-29.857zm-304.33 0.99804c9.4248-0.0813 18.938 1.184 28.359 4.0215 9.225 0.925 13.75 8.7246 15.338 16.912-16.512 14.038-40.613 11.852-56.775-1.7109-33.136-14.983-56.872 19.331-70.754 43.732-0.12179-0.0244-0.24339-0.061-0.36523-0.0781-0.61758-0.0865-1.2351-0.0735-1.8398 0.0898-0.0544 0.0147-0.10793 0.0375-0.16211 0.0547-19.404-6.9999-2.5995-23.59 8.5586-31.938 21.881-18.469 49.366-30.84 77.641-31.084zm251.87 10.59c7.7681-0.30968 14.857 3.5273 16.924 13.531-1.4125 5.35 3.0508 28.551-7.9492 24.764-2.425-18.062-20.425-17.762-33.838-16.662 0.70508-11.868 13.51-21.18 24.863-21.633zm108.74 4.6211c-1.3742-0.0319-2.7258 0.12071-4.0195 0.48633-8.5 0.05-21.25 12.812-16.963 19.199 3.75-20.55 33.513-22.161 40.463-2.5488 0.83125-7.7-9.8609-16.914-19.48-17.137zm-389.09 6.3789c17.985 0.35055 32.611 20.862 52.123 13.807 6.725-2.85 15.65-1.9117 5.8379 2.3008-24.725 7.1125-47.513-10.45-71.988-5.0625-14.05 6.45-24.723 18.7-33.023 31.463 4.025-17.2 21.637-31.764 36.662-40.326 3.6133-1.6211 7.0581-2.2466 10.389-2.1816zm79.539 1.0566c0.18574 0.004 0.36485 0.0211 0.53516 0.0508-2.225 2.5625-4.5137 5.075-6.8887 7.5-12.061 4.2262 0.59586-7.6671 6.3535-7.5508zm355.69 16.49c-1.2986-0.0181-2.6082 0.0812-3.916 0.30859-8.6375 1.1375-16.664 6.4988-20.951 14.111 9.45-6.7625 20.3-14.724 32.588-9.6992 9.55 1.7625 9.7 15.388 15.312 19.65 1.0422-13.027-10.48-24.196-23.033-24.371zm-79.846 0.11718c-4.3871 0.10022-8.7305 1.5801-12.172 4.6777-1.875 0.725-5.8734 5.4379-1.6484 4.7129 5.8125-6.9625 17.562-8.5363 24.688-2.7988 4.125 2.5625 5.45 7.9238 9.625 10.299-0.97109-10.648-10.84-17.111-20.492-16.891zm-284.52 15.988c-1.4237 0.025-2.8484 0.15273-4.2676 0.39062-5.4375 1.3875-13.226 3.7621-13.613 10.412 9.175-6.0625 21.337-8.5379 31.6-3.5254-5.75 11.875-2.9621 25.826 1.1504 37.801 5.3625-6.7125-2.5746-20.912 5.0879-29.188 3.25-8.1875 10.987 8.0996 14.537 4.2246-7.0914-11.056-20.732-20.357-34.494-20.115zm323.31 9.0039c-7.8722-0.0976-16.098 2.4144-22.283 6.9746-1.625 2.125-3.225 4.2625-4.875 6.375-2.3 1.5625-6.0613 10.775-1.4238 7.5 7.075-22.688 48.45-24.875 51.25 1.4375-0.3375 11.188 7.5238-0.0887 2.1113-3.3887-2.5234-13.04-13.274-18.756-24.779-18.898zm-345.67 6.0606c-2.0875 4.225 6.475 11.176 10.812 13.514-1.4375-5.5-5.0125-12.339-10.812-13.514zm-26.734 3.8184c-0.56781-0.0147-1.1394-0.009-1.7148 0.0195-15.438 9.3-11.776 30.625-9.3008 45.75-0.2625 4.5375 9.0621 3.4125 3.0371-2.8125-2.5-10.138-2.5242-28.387 10.926-30.537 14.088 0.0875 19.838 16.049 27.275 24.699 1.1625-16.057-12.62-36.665-30.223-37.119zm319.93 2.8613c-1.7915 0.0166-3.6793 0.29101-5.6562 0.85937-9.4 2.7-21.45 10.562-21.912 21.125 5.9-10.725 16.625-21.114 29.838-18.227 15.7 3.25 16.412 21.538 17.512 34.426 5.9133-14.455-2.4633-38.344-19.781-38.184zm-104.66 9.1504c-6.4535 0.0244-12.835 2.698-16.824 8.6465-2.175 2.7-10.326 10.148-6.5762 12.461 6.45-20.9 41.401-26.199 43.426 0.36328 1.7625 4.0875 2.9621 4.9504 2.0996-2.4121-0.41406-11.781-11.369-19.099-22.125-19.059zm203.7 4.3828c-0.33971 0.01-0.67812 0.0297-1.0156 0.0625-11.762 0.8625-28.788 11.475-29.312 21.725 8.9125-19.675 43.876-27.274 49.488-0.73633 2.7246-10.644-8.6292-21.347-19.16-21.051zm-533.52 6.1758c-2.7375 10.738-9.275 21.199-21.438 22.611 11.15 3.9 28.85-12.474 21.438-22.611zm607.99 4.5312c20.533 0.43015 19.882 33.077 11.295 48.619-3.6 9.9375-16.524-5.8141-18.174 2.7109-1.6375-4.7-3.2375-9.4125-4.625-14.188-4.2-6.25-8.7633-12.236-13.926-17.711-1.0125-9.775 11.163-14.914 18.363-18.477 2.5922-0.69961 4.9423-0.99958 7.0664-0.95508zm-325.75 5.582c11.625 0.15301 18.606 11.85 19.818 22.725-9.1125-0.2-17.386 3.2613-23.799 9.7988-5.1375 4-8.6129 26.7-10.65 15.975 1.35-12.5-7.7883-24.499-3.1133-36.799 0.3875-7.175 8.0383-9.9633 13.988-11.363 1.3008-0.24492 2.5532-0.35177 3.7559-0.33594zm-59.646 1.1856c-10.765 0.20509-19.377 13.6-18.01 25.025-8.65 15.962 22.312 43.401-6.3379 45.363-5.3125 2.1125-10.149 5.2125-15.074 8.0625-8.125-18.862-16.113-43.026-37.176-50.514-22.025-6.95-30.775 21.812-27.1 38.188 1.225 9.2375 4.1633 18.351 9.6133 25.988 5.55 8.8625 14.999 17.363 26.174 15.301-7.725 14.888-35.588-2.575-45.938 5.9375 12.338 0.325 24.739-0.73906 37.014 0.96094 9.25 7.4375 22.7-3.575 35.875 1.6875-2.6375-5.025-18.488 0.57617-25.713-3.6113 3.1625-5.1375 7.4242-9.4512 11.324-14.014 9.4375-9.2 20.126-17.349 32.363-22.424 16.05-4.625 36.637-10.663 50.912 0.57422 4.15 3.075 7.3121 28.476 8.3496 10.426-0.65-5.5375-4.3738-10.2-4.8613-15.75 6.2625-24.125-3.2516-51.875-22.039-67.938-3.1801-2.3434-6.3627-3.3211-9.377-3.2637zm253.69 4.8887c-13.592-0.56967-23.893 23.865-33.012 9.75-21.825-8.6875-43.187 10.312-52.324 28.725 3.775-1.9 5.7625-5.7242 8.125-9.0117 9.3125-12.275 25.411-23.313 41.273-17.4 10.6 7.8 10.175 23.487 4.0254 33.949 6.3875 7.1 7.2883-15.1 8.0508-20.088-2.175-29.1 56.274-29.873 51.012 4.5391 6.825-7.925-6.1617-33.277-22.824-29.414-1.4789-0.66445-2.9201-0.9899-4.3262-1.0488zm87.469 0.86914c1.6201-0.0317 3.3148 0.20625 5.0703 0.75586 15.775 7.4125 25.062 23.438 30.574 39.338-1.1875 2.7875-5.825 3.3734-8.4375 5.1484-12.125 17.112-26.1-11.199-42.588-8.5742-9.0512-10.943-0.28011-36.362 15.381-36.668zm-343.28 1.9883c1.5946-0.0113 3.407 0.46016 5.4648 1.5547 20.825 10.562 30.451 37.788 24.764 59.863-20.738 0.9-8.3887-29.577-25.701-36.227-5.9125-7.9125-21.912 6.2254-15.199-9.2871 0.94453-6.7438 3.7617-15.855 10.672-15.904zm-3.2285 24.986c9.2529-0.20585 9.2496 18.35 0.11914 19.494-6.6875-2.7625-9.7371-14.514-3.2871-18.789 1.1555-0.46289 2.2108-0.68378 3.168-0.70508zm-78.906 1.0312c21.3 4.3 35.725 25.537 39.912 45.85-0.9875 5.8625-8.0121 8.5379-11.35 13.275-1.8375 1.4625-5.6117 8.3613-6.3242 2.9863-1.5375-15.538-9.6133-38.975-28.801-37.188-4.375-0.65-5.9633 8.6137-8.8633 5.8262 0.1375-10.362 0.41328-30.888 15.426-30.75zm379.7 7.2832c5.3422-0.0768 10.763 2.15 14.467 7.3535-3.5375 7.2625-4.8629 15.087-4.3379 23.162 2.55 4.6625 3.5391 12.114 8.8516 14.102-4.6375-11.212-9.1008-25.975 0.0742-36.213 13.962-9.275 33.112 1.7504 42.662 12.588-5.375 6.5375-10.413 13.375-13.463 21.35-8.8875 10.938-26.15-0.37539-37.912 5.3496-8.2625 4.1875-18.375-6.0254-23.775 0.41211 0.025-9.0625-0.0117-18.188-2.8242-26.9l-1-0.25c-2.8547-12.264 7.059-20.807 17.258-20.953zm95.52 6.1992c10.766 0.29849 15.384 13.954 14.16 23.605-5.625 24.588-44.963 8.8359-60.588 14.211 8.4625-17.225 22.876-34.586 42.889-37.461 1.2457-0.27422 2.4253-0.38635 3.5391-0.35547zm-242.62 2.041c2.74-0.003 5.5305 0.73164 8.293 2.4629 11.425 10 15.052 30.414 1.5391 40.164-7.875-0.55-15.713-1.5508-23.551-2.4258-2.5875-2.5375-5.0746-5.1621-7.7246-7.5996-3.075 15.812-5.0121-13.812 0.40039-19.625 5.0719-6.3188 12.823-12.968 21.043-12.977zm285.48 0.95117c6.9 8.5 3.1375 22.55-6.0625 27.875-0.5125 0.05-1.5363 0.16289-2.0488 0.21289-6.975 4.9625-15.525-5.4133-20.25 2.5117 0.9125-4.6 1.8871-9.1625 2.7871-13.75 8.5875-1.7 12.25-12.737 21.75-10.912 3.1625 0.3 2.9242-3.85 3.8242-5.9375zm-331.68 0.81c5.2168 0.0387 10.223 2.5305 13.912 8.6758 0.875 9.2375 7.9387 19.9 2.7637 28.562-14.662-0.6625-29.726-1.3504-43.889-5.4004-0.35-6.1 1.8008-11.837 4.4883-17.162 4.75-7.9922 14.03-14.74 22.725-14.676zm-293.64 3.4004c-10.93 19.31-22.62 38.46-38.23 54.53-15.9 18.362-30.862 45.862-18.438 69.787 5.3625-10.988-0.28672-26.9 10.176-36.775 5.475-12.588 13.298-23.85 21.398-34.85 37.05-20.775 81.551-20.187 121.68-9.0117 3.7 1.5875 0.63789-2.4387-0.47461-3.6387-38.65-13.462-84.313-12.062-118.9 8.9375 9.85-14.975 24.151-29.724 22.801-48.986zm3.8125 5.0254c6.5375 5.375 8.4117 16.761 15.949 20.023-1.85-8.275-8.0492-16.736-15.949-20.023zm390.58 1.293c15.031-0.15646 20.801 20.307 11.92 32.145-16.112 2.65-36.264-0.63906-50.039-4.7266 5.225-13.488 18.689-24.336 33.164-26.674 1.7473-0.48984 3.4001-0.72795 4.9551-0.74414zm-290.71 0.63086c10.862 0.8 10.124 21.55-1.1387 21.975-9.3875-2.9125-10.736-21.95 1.1387-21.975zm98.252 16.209c-5.1906-0.0672-10.078 1.048-13.141 4.7793-10.662 0-40.512 25.999-19.162 29.861-9.975-10.075 10.925-17.675 16.312-23.75 6.4375-3.5125 17.612-7.0625 22.637-1.9375-9.4625 9.3375-21.237 17.55-34.787 19.15 3.25 5.6625 15.613 8.3508 12.525 17.426 3.0625 5.15 8.4375 8.0125 13.688 4.25 14.112-9.7375 30.462-30.838 16.887-47.463-4.275-1-9.7684-2.2492-14.959-2.3164zm417.07 3.1797c2.55 2.3875-1.025 5.45-1.75 8-80.088 4.375-160.25 9.7-240.47 11 0.7875 3.975 14.699 0.13633 19.762 3.4863 73.212-5.875 147.42-4.8121 220.66-13.412-0.175 9.375-4.5875 18.176-7.75 26.801-11.8 7.475-26.612 6.5871-39.762 10.35-6.375-3.05-13.438-1.9004-20.051-0.46289-6.2875 0.6625-12.448 1.9383-18.648 3.0508-1.5719-0.0391-3.0021 0.0507-4.3242 0.23633-0.43216 0.0607-0.8356 0.14681-1.2461 0.22656-0.002 0.00036-0.004-0.00036-0.006 0-41.681 3.5329-83.515 5.3545-125.35 4.6484-40.388 0.125-80.824-2.15-120.76-8.125-3.15-17.588 27.374-4.9004 32.699-14.213-10.788 1.45-21.588 4.2262-32.525 2.8262 0.325-6.475-1.5625-12.538-4.625-18.176 6.3125-4.4875 16.312 0.66289 24.188 0.33789 10.675 2.075 21.538 2.0992 32.312 1.0742-8.5125-1.8875-17.175-2.5984-25.875-2.2734-6.8625-2.4-20.988 0.34961-22.438-6.0879 15.212-0.5375 30.563 1.6625 45.838 2.375 73.088 8.475 146.39-2.6387 219.6-3.6387 23.512-2.5125 47.363-2.8359 70.525-8.0234zm-347.33 5.9414c13.594 0.12112 2.5332 9.5293-3.0566 0.10742 1.1344-0.0828 2.1504-0.1155 3.0566-0.10742zm-3.0703 11.232c2.9375 5.675 9.4387 12.062 6.2637 19-12.488 2.3-25.064 4.1121-37.602 5.9746-2.8375-17.475 21.475-16.1 31.338-24.975zm5.6875 20.889c4.9 5.4375-10.374 30.598-7.3613 15.211-8.8875 13.812-6.7387-0.36211-6.2637-9.3496-3.1625 4.35-0.2125 15.7-7.25 15.787-6.375-2.375-16.211 1.2379-20.424-1.5996 0.15-21.712 26.924-15.486 41.299-20.049zm290.72 9.57c0.225 18.112 35.174-8.8121 36.512 6.6504-8.85 40.425-21.975 79.925-30.375 120.4-5.375 7.8875-20.749 5.7738-30.299 6.6738 10.912-43.325 10.325-93.412 24.162-133.72zm-5.9258 0.58789c-8.2875 42.712-9.9113 90.024-22.611 130.89-11.938-14.025-39.162-13.262-46.75 6.0879-0.8125-4.175-1.4383-8.35-1.9883-12.562 4.2625-39.662 6.9383-79.713 13.176-119.03 0.4 0.35 1.2113 1.0387 1.6113 1.3887-1.7375 8.325 9.8125 5.3375 15 5.0625 13.212-3.65 34.012 1.2121 41.562-11.838zm-61.312 5.625c-4.2 36.55-8.7625 73.188-11.188 109.94 0.9 13.812-10.175-4.0512-17.125 0.98633-9.3625 2.4625-20.55 0.05-26.475 9.375-14.162-0.7375-20.838 17.65-34.5 15.963 2.2125-6.175 17.088-11.799 12.863-22.512-0.3-7.875-18.375-7.1508-11.275-14.176 3.5375-30.825-0.47578-61.812 0.44922-92.688-1.6125-6.0375 4.6633-1.1992 4.0508 2.5508 24.125 1.75 48.562-0.575 72.725-1.8125 9.3875 4.2375 4.7996-7.1625 10.475-7.625zm-223.52 0.44922c14.362 1.8875 30.786 8.1508 44.861 4.7383 7.3125 10.412 2.5258 34.075 6.4258 49 0.4875-17.025 1.1-35.05-3.875-51.463 4.1625-6.8125 1.6488 3.9133 6.1113 4.4883 25.788 4.3625 52.889 4.3988 78.639 0.54883 2.725 27.2 4.8504 57.5 1.5254 85.9-3.175-17.85-25.476-18.65-37.576-9.5996-13.862 9.925-19.062 32.862-39.387 31.787 0.075-2.7125 0.16211-5.3992 0.28711-8.0742-2.4875-17.75-2.0633-36.439-5.7383-53.514-1.1625 14.212 2.6125 28.338 1 42.525-2.0875-8.1375-4.6992-16.526-11.012-22.488-13.475-9.925-40.137-1.4496-37.35 17.838-4.225-5.45-3.2746-20.912-5.9746-30.812-0.8875-15.962-6.8387-31.437-6.4512-47.412 4.8125-7.8125 13.5-7.1492 21.688-5.5742 1.8375-8.3125-17.299 2.5738-13.174-7.8887zm-11.666 7.4551c1.92 0.003 3.2461 1.2461 2.4531 4.3711-2.075 2.3375-4.2629 4.5863-6.6504 6.6113 9.55 9.1625 7.7367 28.2 11.637 42.475 2.9 20.8 4.7004 41.788 8.4004 62.463-5.575 4.3375-11.012 8.8512-16.375 13.451-9.8625-19.938-6.0254-45.426-16.025-63.738-7.1375-20.162-6.4371-40.251 11.463-54.551-6.2305-5.1047 0.87356-11.089 5.0977-11.082zm-310.37 10.482c-5.9 9.6375-3.4234 21.701-0.89844 32.014 3.775-6.7125-5.6508-21.914 2.0742-24.852-0.6625 30.838 24.25 55.162 49.787 68.625-0.1-0.6625-0.28672-1.9859-0.38672-2.6484-15.512-13.088-29.6-28.277-40.537-45.414-6.2-8.375 0.23594-22.025-10.039-27.725zm238.15 2.2285c3.0954-0.0666 6.2141 0.45469 9.2109 1.5977-2.1 11.025-8.6629 20.537-17.025 27.824-6.7125 2.9875-14.137 7.3754-21.725 5.2129-6.25-13.338 2.6129-31.837 18.025-31.537 3.593-1.9547 7.5338-3.012 11.514-3.0977zm-83.881 3.5996c6.0803-0.0795 11.102 8.2988 13.416 13.572 0.8375 13.612 1.85 27.3 0.0625 40.875 6.2875-4.025 5.9375-19.175 5.0625-27.338 15.362 1.7125 5.5008 24.3 8.8633 34.9-1.5 1.7125-2.9758 3.4504-4.4883 5.1504-33.975 2.8125-18.837-43.076-36.699-57.738 0.8-3.1 5.7504-4.8113 8.4629-7.1113 1.832-1.6023 3.6178-2.2883 5.3203-2.3106zm51.043 2.5625c10.661 0.57832-8.141 19.37 0.24805 28.973-15.438 1.675-13.562-19.688-6.7871-28.025 2.8906-0.74063 5.0161-1.0299 6.5391-0.94727zm76.574 23.396c8.6625 26.175 12.65 58.55 21.225 86.75 0.525 3.075 7.65 13.877-2.875 9.4141-37.35-5.2125-73.113-24.276-103.68-43.576 29.338-16.012 63.251-25.438 85.326-52.588zm66.682 26.443c0.47824-0.005 0.96367 0.009 1.4551 0.0449 17.525 1.1375 20.587 22 21.475 35.812-0.45 3.9375 4.6016 18.15 6.3516 9.0996 13.162-1.425 25.699-6.6496 36.424-14.287 4.9125-9.5625-2.9121-3.7758-6.8496-2.5508 3.7625-16.05 28.463-29.299 40.4-14.074 4.3125 9.5625-2.5504 20.138-11.025 24.588 4.425-10.862-5.0125-0.0512-6 5.3613-9.8875 22.388-33.326 30.576-51.801 43.301 21.312-2.8875 40.876-14.926 50.826-34.301 3.7875-11.25 16.475-13.974 23.1-22.986 17.512 2.5125 9.8383 24.238-3.6367 26.9 2.0125-8.95-3.3508 0.51133-5.1758 4.1738-8.7875 16.6-26.575 24.201-41.475 34.051 20.662-2.2 48.312-8.3254 63.438 13.162 2.625 7.85 2.0871 19.101-8.2129 20.113-10.112-9.5875-24.737-4.0629-36.387-10.088-12.162-8.8375-26.263-1.6-38.426 2.9375-26.112 9.8625-54.488 4.925-81.363 10.312 5.2625-12.3 2.25-27.112 7.25-39 3.3125 1.1 9.3383 11.737 11.926 10.262-19.412-19.362 0.61172-44.075 16.949-56.963 6.2125-6.575 10.113-18.125 2.2383-25 2.15 4.8875 4.0133 19.526-2.8867 9.1387-11.698-10.317-3.419-29.843 11.406-30.008zm-263.44 21.033c1.5744-0.006 3.1988 0.20508 4.8652 0.66211 14.762 5 30.163 8.2625 45.838 8.25 15.188-0.4125 28.088 8.6625 43.463 5.5-12.35 25.538-42.912 15.425-64.887 12.275-11.75-0.125-23.914-6.7629-28.227-18.025-1.0625-1.8-1.0488-5.2879-3.9238-4.7129 3.4625 23.075 30.836 29.725 49.674 35.4 20.575 5.825 51.064 9.5363 64.826-10.764 1.75-21.538-7.3621 18.05-14.35 1.5625-12.475-7.05 4.8609-15.5 10.211-21.662 8.3125 4.8 19.625 12.25 15 23.525-7.4625 14.1-24.611 19.025-38.898 23.213 7.3875 4 15.637-0.18867 23.35-0.0762 5.2 4.2125 2.2996 13.65-2.0879 16.9-44.188-4.975-84.701-24.138-126.24-38.588-4.248-13.118 6.1654-33.401 21.385-33.461zm240.69 0.64844c-1.475 11.862 22.649 12.45 8.0488 20.312-1.6 0.9375-3.1875 1.8754-4.75 2.8379-2.2-7.5-4.0863-15.288-3.2988-23.15zm194.24 15.811c4.6296 0.14093 8.8672 2.1582 10.688 6.791 5.225 11.4-3.4988 23.325-10.549 31.662 11.675-11.875 16.762 5.2379 11.512 15.9-1.1875 9.325-20.188 24.711-22.588 14.111 7.6375-16.662-7.9734-32.8-3.7109-50.037-7.6141-9.9688 4.4633-18.738 14.648-18.428zm49.115 6.4941c16.166-0.86376 14.711 24.825 2.1484 31.746-10.075 3.3625-12.888 11.738-1.3008 6.4004-0.3375 13.375-12.462 25.787-26.25 23.162-3-0.575-11.249-2.5254-8.5488-6.1504 0.0875-0.475 0.24922-1.45 0.32422-1.9375-0.6-7.5125 3.1242-11.612 6.5117-3.5996 0.8375-17.412 0.21289-42.487 21.525-48.449 2.0566-0.70781 3.9176-1.0825 5.5898-1.1719zm53.822 4.6328c-1.975 8.75-4.6371 17.514-7.9121 25.789-9.5625 4.8875-20.738 5.0617-31.188 6.3867-2.875 0.3375-5.7246 0.84961-8.5996 1.0996 1.925-8.7 10.287-14.824 11.824-24.074 11.45-4.6 26.3 0.12383 35.875-9.2012zm-135.19 1.9375c15.871 0.18059 16.363 22.152 8.582 33.051 3.0875-2.575 5.3746-5.8625 7.6621-9.125 4.2125 8.4875 2.7992 18.125 1.0117 27.037-6.3 10.738-23.886 12.126-33.549 5.3262-0.7-5.2375-8.2371-6.4758-8.1621-10.988 7.4625-0.825 15.55-1.6746 22.312 2.2754-2.8-4.3-6.075-8.2887-9.125-12.389-4.275-11.1-4.9383-29.999 7.8867-34.924 1.1969-0.19141 2.3228-0.27571 3.3809-0.26367zm-270.07 0.46289c29.912 7.3375 55.538 31.125 87.5 28.562-30.238 19.575-70.2 18.525-105.06 15.225 3.8-5.825 7.2992-17.912 1.1367-20.5 5.3375-7.7125 16.201-12.025 16.426-23.287zm235.18 9.2012c-2.9375 6.4125 9.5617-1.4512 7.6992 4.9238-1.3 10.238 5.7492 19.101 13.324 25.113-16 1.25-35.512-3.0133-49.324-1.1758 13.025-5 19.151-27.011 28.301-28.861zm-405.47 3.9922c13.996 0.0297 27.519 7.018 40.998 10.045 9.0875 2.7125 17.852 6.4121 26.914 9.2246 40.212 12.912 82.488 22.912 125 18.787 1.075-6.2125 19.511 5.4754 19.299-5.9746 8.2375 5.7375 20.038-1.9371 30.25-3.2246-8.3125 9.45-21.85 12.862-30.775 21.812 15.512-5.2375 28.526-15.951 43.113-23.201-7.4375 18.15-16.712 41.1-6.25 59.775 4.4375 9.0875 16.563 4.3762 18.863-3.4238-22.25 11.6-7.5766-19.413 5.9609-13.275 2.4375 15.175-10.611 29.913-26.148 27.9-12.838-4.2625-14.625-19.863-19.775-30.426-6.1625 3.075 3.2113 12.801 0.67383 16.301-23.25-1.0125-44.974 8.2359-67.299 13.336-9.4 2.625-19.063 3.9137-28.551 6.1387-41.8 4.125-91.288-0.87617-118.56-36.889-3.125-3.9375-4.7371-9.4246-9.5371-11.725 14.888 39.688 59.724 58.475 99.449 59.25-7.5 25.075-25.888 46.987-37.062 71.037-11.55 18.27-18.56 40.43-35.92 54.31 1.2375 4.6375 9.4008-1.1371 13.238-1.8496 7.1875 3.75 9.2242 12.475 9.5742 19.975-19.1 3.4-38.338 6.2871-57.426 9.4121-24.125 6.2125-49.511 6.8746-74.299 6.1621-1.8625-3.1125-3.2008-2.9867-4.4258 0.42578-54.775 2.225-86.374-54.312-94.512-101.35-4.4875-20.762 14.437-37.75 33.324-41.162-11.075 40.512 13.226 84.15 46.426 106.5-23.238-20.85-42.788-48.575-43.613-80.963 0.5375-8.5375-0.12422-21.339 10.363-23.951 47.85-11.062 81.687-53.162 99.037-97 6.4125-12.55 11.6-27.099 23.875-35.199 2.627-0.54102 5.2343-0.77503 7.8262-0.76953zm356.87 53.344c17.988 2.1625-4.7113 25.463 9.6387 32.275 6.775 3.3625 10.525-4.4754 11.537-10.025-2.95 2.975-7.8383 8.9875-11.488 3.4375 2.45-5.4375 10.65-5.8734 16.025-7.2734-1.6 13.65-16.475 29.074-30.5 19.549-11.875-2.175-4.0504-23.674-15.65-25.736 0.2875 4.5375 3.1266 8.675 2.5391 13.438-20.062-2.05-40.264-0.58906-60.289 1.2109-2.0625-4.7375-2.4871-11.786 4.0254-9.4609 26.65 5.35 50.65-7.4016 74.162-17.414zm11.088 7.2383c5.4375 0.6 15.688 0.42422 17.025 5.8242-9.3375 3.7125-24.625 12.238-17.025-5.8242zm-374.85 11.361c-0.89629-0.0257-1.6656 0.0438-2.2344 0.22656-15.188 5.3875 9.0391 3.5363 14.789 8.1113 6.2344-3.3141-6.2807-8.1581-12.555-8.3379zm-204.47 41.047c-0.4103-0.001-0.82656 0.0203-1.25 0.0664 3.5125 2.95 7.2246 5.7258 10.662 8.8008-19.512 4.025-40.538 4.9246-58.426 14.412-2.2625 4.725 2.9141 1.7754 5.4141 1.3379 21.187-4.875 43.612-14.489 65.449-8.5762-2.025-2.5125-4.2258-4.8746-6.5508-7.0996-4.4297-3.8203-9.1443-8.9258-15.299-8.9414zm-12.648 20.275c-6.8343-0.00067-15.607 5.3848-22.365 7.0547l-0.98633-0.0137c-14.712 8.375-35.526 11.637-46.113 25.037 9.6625-2.825 18.625-7.65 27.338-12.625 6.775-3.525 13.538-8.9984 21.463-8.7109-6.65 3.1125-12.25 7.975-18.812 11.25-15.75 14.512-33.687 36.437-26.537 59.1 5.7-38.638 38.598-63.212 71.211-79.625-1.523-1.0445-3.2836-1.4666-5.1973-1.4668zm-28.289 37.467c-15.1 11.175-36.276 22.387-33.639 45.762 3.475 6.2625 7.0004-14.925 9.1504-15.6-0.025 17.275 2.1262 39.637 21.764 45.975-2.85-4.7-6.6125-8.8375-8.9375-13.812-3.175-7.3375-1.2137-15.538 0.86133-22.875-7.15 2.55-4.7363 12.075-6.4863 17.775-8.5875-22.4 8.0746-39.75 17.287-57.225zm67.361 10.938c13.325 48.875 49.677 103.06 106.73 99.662 28.688 0.525 57.686 0.48828 85.924-4.8242-6.8625 11.3-19.1 20.149-23.375 32.424 6.5 0.8 9.1633-6.4996 14.051-9.2871 12.612 0.0625 25.061 4.0008 35.736 10.676 15.838 3.6625 32.564 11.012 39.539 26.725 7.3625 21.6-0.53828 49.838 18.199 66.75 7.5625 8.2875-14.738-0.40039-13.963 6.5371 8.2625 0.5 16.701-0.26328 24.863 1.3867-2.1375 9.4-7.0996 18.027-9.5371 27.414-1.4875-0.4875-3.0262-1.0262-4.3262 0.1738-0.3375-3.8625-0.23633-7.7371-0.0488-11.6-23.512 21.138-54.163 47.937-51.738 82.762 2.0125 13.65 25.7-7.4988 11.275-1.9863-12.05 3.525 5.1621-21 7.2246-7.0879 12.35 16.575-20.888 26.701-30.5 15.363-7.075-17.7 2.1367-38.164-5.1133-56.039-2.6375-12.625-11.412-22.898-13.787-35.398-5.775-6.025-14.337-9.0391-18.6-16.602 8.1375-1.7375 21.551 9.2008 25.988 4.6133-28.8-14.238-49.677-41.362-80.477-52.287 3.25-8.475 29.664 5.7367 30.602-5.2383-18.425-2.075-38.338-4.5129-56.15 1.2246-2.0875-0.25-4.1637-0.62461-6.2012-1.0996 9.2625-5.7375 23.688-6.0867 29.926-14.262-17.812 5.2125-36.062 10.188-52.75 18.438-10.938 4.6625-24.587 4.0242-21.137-12.176 1.9125-14-2.2262-29.186 4.0488-42.361-2.25-2.0625-5.3242-2.9379-8.3242-2.6504-4.7 15.362-3.0875 31.862-1.9375 47.637 1.325 20.712 3.1379 41.35 7.0879 61.75 2.9875 13.8 2.4113 28.088 1.0488 42.051-4.075 28.05-38.537 33.511-59.037 44.861-14.625 2.8375-34.313 12.452-46.738 1.4766-18.205-16.7-33.042-42.9-25.104-68.16 8.262-11.44 22.886-15.64 35.012-21.64-0.125 4.7375-0.67344 9.4242-0.64844 14.199 0.2125 2.1625 0.58672 4.3258 1.0117 6.4883 0.825 3.6625 6.2004 17.862 7.7754 9.125-4.3875-6.3875-3.3371-14.337-2.6621-21.6 1.8875-16.325 8.4121-0.66328 16.1 1.2617-13.75-24.825-30.2-50.462-31.312-79.887l-2.1758-17.375c-1.95-53.575 19.2-109.56 63.537-141.44zm352.64 110.77c14.509 0.0227 23.788 17.106 19.697 31.193-4.1625 11.262-13.137 19.411-19.6 29.211 11.975-4.35 20.1-15.987 25.275-27.162 1.95-7.975 0.92422-16.399-1.7383-24.074 12.6-7.9375 31.276 2.8129 30.764 17.9-0.175 16.75-12.288 30.649-25.338 39.824 0.7375 0.725 1.4875 1.4629 2.25 2.2129 15.75-10.225 32.649-24.488 30.449-45.463 15.725-3.8125 25.226 15.113 21.363 28.275-1.9 18.488-15.339 31.836-26.889 45.111-40.7 42.012-57.737 101.35-99.412 142.7-8.475 6.3125-19.199 12.036-30.111 9.4863-20.6-16.375-1.475-44.211 10.25-60.586 23.325-26.05 24.886-62.401 41.523-91.863-1.3875-1.7875-3.0625-3.325-4.625-4.9375-2.6-2.5125-5.1363-5.1004-7.6738-7.6504-12.062-29.5-4.1512-69.738 27.299-83.088 2.2625-0.75156 4.4429-1.095 6.5156-1.0918zm-293.08 14.17c-0.46794-0.0278-0.94219 0.0359-1.4062 0.21094-7.5125 8.6-13.25 22.787-10.588 33.262 6.0625-6.4 6.8254-19.7 14.775-26.412 3.4344-2.1984 0.49436-6.8659-2.7812-7.0606zm243.29 41.961c6.7875 8.3375 3.9121 23.124 13.412 30.887 2.3625 4.575 6.8121 7.1996 10.912 10.037-12.775 27.938-17.687 59.5-38.012 83.625-15.588 18.412-35.588 47.438-15.588 69.301-10.112-1.8375-16.014-12.026-19.139-21.051-2.325-15.65-9.7738-29.6-21.111-40.6-1.175-6.425 7.2492 2.5246 9.4492 4.5996 4.1375-13.875 12.025-26.238 21.85-36.812 3.0125-3.1375 3.6516-13.074 9.3516-7.2617-0.675 4.6375-4.2258 8.2863-5.1133 12.924 3.0375-1.7125 4.9004-9.35 8.2129-7-2.1875 5.575-4.1371 11.251-5.7246 17.051 13.212-14.938 17.186-35.401 24.611-53.426 2.0375-6.1875 2.1121-12.786 3.5996-19.086 2.25 2.6 11.513 11.699 8.6133 3.3242-8.5125-13.6-14.999-31.649-5.3242-46.512zm46.086 46.938c7.875 9.425-15.698 39.712-11.336 16.262-0.8875-5.9375 13.325-16.175 6.9375-16.088-7.7125 6.25-14.589 19.313-8.1387 28.363 12.875 3.3375 22-22.212 12.537-28.537zm21.363 3.8125c-9.375 4.4375-15.462 15.661-11.199 25.674 11.462 0.0625 15.549-16.225 13.486-24.838-2.8625 6.775-3.6746 16.738-11.287 20.125-4.3375-9.0625 6.275-13.636 9-20.961zm-468.84 37.78c-2.7375 31.35 18.549 55.963 37.486 77.775-1.6375 4.6375 1.1141 9.1492 0.78906 13.824-9.025 3.0375-21.651 0.7375-28.514 8.125 14.25-3.9 30.313-6.1379 43.863 1.2246-4.1 7.4375-15.001-1.775-21.488 2.625-17.45-0.1125-33.837 7.4254-48.6 16.088-10.488-34.3-13.387-73.425-1.1621-107.65 3.5-6.5875 10.138-11.374 17.625-12.012zm-22.75 12.924c-5.275 34.2-9.275 71.426 2.875 105.18 2.55 4.9875-4.325 6.7375-6.625 10.188 19.488-11.05 40.35-25.087 64.062-20.199-1.3875 0.8875-2.7512 1.7984-4.1387 2.7109-17.462 8.8-37.338 18.888-46.25 37.176 14.425-13.1 30.852-23.899 49.352-30.324 31.025-11.775 69.362-30.525 99.912-8.3379 18.962 16.1 5.3242 43.074-16.238 46.799 4.575-11.625 4.9879-26.611-4.9121-35.549-13.162-12.25-36.25-7.0871-46.838 6.3379 13.212-7.925 30.387-15.088 44.162-3.8125 16.438 27.388-20.638 52.974-43.375 49.549 5.2875-10.788 9.3508-25.349 0.73828-35.611-16.65-16.525-47.551-4.4766-56.301 14.961 13.775-10.225 31.939-24.825 49.789-15.1 12.175 12.225 1.3609 31.287-10.664 39.35-31.725 13.05-77.948 3.3887-88.836-33.111-14.423-40.7-14.524-90.9 10.952-127.3 0.7875-1 1.5629-1.9879 2.3379-2.9629zm434.49 40.764c-6.6875 4.525-14.836 15.924-7.6738 23.174 7.6-0.825 17.774-20.861 7.6738-23.174zm0.0137 1.9492c4.925 3.5625-2.8508 16.562-7.9258 15.975-0.625-6.3875 4.0133-11.562 7.9258-15.975zm-386.59 77c-3.5125 1.4-22.525 12.501-13.438 14.014 2.1125-5.975 14.938-10.951 13.438-14.014z" transform="scale(.8)" fill="#050515"/>
</g>
</svg>
