<?xml version="1.0" encoding="UTF-8"?>
<!DOCTYPE svg PUBLIC "-//W3C//DTD SVG 1.1//EN" "http://www.w3.org/Graphics/SVG/1.1/DTD/svg11.dtd">
<svg version="1.1" xmlns="http://www.w3.org/2000/svg" xmlns:xlink="http://www.w3.org/1999/xlink" x="0" y="0" width="666" height="2152" viewBox="0, 0, 666, 2152">
  <defs>
    <clipPath id="Clip_1">
      <path d="M23.535,169.985 L647.875,169.985 L647.875,2143.742 L23.535,2143.742 z"/>
    </clipPath>
  </defs>
  <g id="GraphicMama">
    <g>
      <path d="M404.502,710.243 C393.127,710.388 382.328,708.646 371.504,706.637 C370.674,706.197 369.824,705.833 369.004,705.36 C348.486,693.539 335.255,676.371 320.1,658.843 C319.211,657.816 318.226,657.144 317.233,656.53 C314.848,646.896 312.637,637.1 310.437,627.209 C309.96,622.242 309.571,617.247 309.412,612.178 C309.198,605.336 308.697,599.068 307.794,593.1 C310.062,599.321 313.372,605.444 318.984,611.833 C344.139,640.474 381.059,643.991 417.397,641.578 C417.395,641.603 417.387,641.629 417.385,641.654 C416.123,656.401 413.751,669.236 410.099,683.412 C407.15,694.858 414.417,702.503 423.077,704.275 C424.255,705.768 425.675,707.056 427.24,708.09 C419.862,709.295 412.386,710.142 404.502,710.243 M293.278,557.454 C295.362,557.541 297.445,557.628 299.529,557.715 C299.698,558.817 299.939,560.025 300.286,561.398 C301.542,566.363 302.433,571.015 303.308,575.478 C300.969,569.382 297.675,563.453 293.278,557.454 M627.497,357.219 C599.493,326.994 562.274,342.617 536.142,365.419 C533.604,365.844 530.98,366.586 528.246,367.947 C476.425,393.743 418.592,430.259 404.521,489.597 C401.537,490.353 398.603,491.253 395.737,492.344 C387.484,493.04 379.132,493.618 370.89,494.485 C361.093,488.629 348.378,489.854 340.004,497.439 C339.243,492.565 338.419,487.704 337.993,482.763 C336.249,466.948 324.595,458.323 312.602,457.184 C310.286,450.033 308.337,442.611 306.481,434.887 C313.581,416.067 321.081,397.315 327.026,378.111 C328.873,372.144 327.642,366.762 324.689,362.558 C326.674,361.846 328.694,360.897 330.758,359.436 C336.117,355.644 340.259,352.612 344.098,349.601 C344.49,361.341 359.269,369.438 368.32,362.104 C377.286,373.367 395.113,366.775 400.87,354.938 C414.642,357.204 427.917,360.109 439.652,366.271 C448.084,374.947 455.18,383.961 459.458,390.148 C470.179,405.65 493.399,392.338 484.821,375.323 C483.223,372.155 481.564,369.058 479.9,365.965 C481.243,361.815 481.1,356.923 478.618,351.735 C469.517,332.716 456.847,323.495 442.437,318.315 C442.722,313.336 441.14,308.343 436.631,304.308 C410.167,264.231 377.984,202.646 320.902,236.541 C319.02,237.659 317.503,239.272 316.17,241.051 C278.477,226.973 235.033,228.326 202.15,249.811 C181.52,244.303 160.431,249.972 144.073,263.776 C136.95,269.788 137.878,281.973 144.073,288.167 C145.141,289.235 146.28,290.059 147.448,290.763 C147.593,306.916 153.225,319.108 163.022,335.303 C179.83,363.086 193.862,377.646 188.17,416.02 C186.51,427.21 179.974,437.384 178.826,449.104 C178.091,456.617 178.541,464.617 179.757,472.87 C175.305,478.81 175.176,487.521 179.051,493.8 C178.247,497.205 178.031,500.775 178.682,504.339 C182.901,527.427 190.378,545.69 203.458,565.085 C205.011,567.387 206.929,569.201 208.979,570.789 C203.484,574.228 191.769,573.947 189.442,579.181 C173.716,552.854 168.248,517.87 144.239,514.857 C135.225,505.054 116.999,510.618 104.276,510.26 C63.648,509.117 57.041,561.534 77.503,587.8 C82.866,596.075 90.655,602.005 99.333,605.157 C101.335,611.886 106.878,617.291 115.44,616.746 C142.004,615.056 154.111,600.536 157.056,581.371 C168.232,597.343 180.778,619.82 190.755,638.46 C200.991,695.8 245.712,770.727 260.903,794.44 C262.726,797.286 265.204,799.219 267.957,800.389 C269.29,803.241 270.622,806.093 271.956,808.945 C277.538,820.89 292.485,820.195 301.316,813.185 C310.627,823.094 322.319,830.318 336.428,830.691 C336.557,830.694 336.69,830.676 336.82,830.678 C345.725,833.654 355.458,835.804 365.157,836.754 C374.653,838.598 384.956,839.88 395.276,840.389 C397.257,844.37 401.172,847.121 407.125,846.493 C407.577,846.446 408.03,846.315 408.483,846.262 C412.155,847.656 416.558,848.014 421.709,846.702 C447.486,840.133 467.943,829.159 483.432,807.306 C483.75,806.857 483.935,806.409 484.205,805.96 C486.302,803.474 488.173,800.824 490.024,798.163 C493.098,794.864 495.943,791.379 498.536,787.858 C499.232,786.914 499.939,785.825 500.644,784.776 C506.485,784.53 512.294,781.745 516.403,774.94 C527.909,755.891 540.166,727.256 547.31,697.216 C564.825,647.878 566.794,591.612 547.744,544.072 C547.687,543.839 547.647,543.613 547.589,543.379 C547.555,543.395 547.52,543.408 547.485,543.423 C547.324,543.024 547.173,542.621 547.007,542.223 C565.786,532.787 582.704,519.553 596.48,502.317 C609.875,485.558 623.585,459.847 629.061,434.155 C643.85,410.077 649.125,380.559 627.497,357.219" fill="#F2D2C4"/>
      <path d="M252.562,1504.651 C239.842,1479.749 207.676,1469.099 183.605,1484.402 C174.518,1490.18 171.979,1499.185 173.932,1507.152 C170.006,1507.968 166.261,1510.082 163.305,1513.067 C157.377,1515.471 152.96,1521.201 152.867,1528.169 C152.756,1536.337 152.646,1544.506 152.536,1552.675 C152.48,1556.9 154.479,1561.091 157.507,1564.313 C159.836,1569.3 163.284,1573.552 168.411,1576.258 C176.812,1580.692 187.334,1579.971 197.423,1576.76 C199.62,1578.963 202.177,1580.77 205.268,1581.541 C223.769,1586.153 249.916,1577.282 248.684,1554.344 C258.147,1539.791 261.436,1522.025 252.562,1504.651" fill="#F2D2C4"/>
      <path d="M620.604,1520.181 C616.902,1515.768 611.146,1513.266 604.801,1512.284 C604.072,1512.042 603.466,1511.701 602.68,1511.505 C596.444,1509.945 591.124,1510.729 586.582,1513.122 C584.613,1511.726 582.449,1510.522 579.881,1509.824 C575.751,1508.702 571.541,1510.601 569.301,1514.129 C565.512,1520.096 566.725,1528.119 571.279,1532.776 C563.664,1551.771 562.955,1577.942 566.617,1590.273 C569.102,1598.64 577.245,1602.305 584.615,1601.269 C591.154,1604.317 599.364,1602.948 603.88,1595.472 C611.233,1583.3 623.073,1555.921 621.413,1535.468 C624.309,1531.13 624.13,1524.384 620.604,1520.181" fill="#F2D2C4"/>
      <path d="M486.939,171.853 C490.691,160.63 492.087,148.749 490.193,136.808 C495.397,112.191 493.906,87.823 483.347,71.798 C477.698,63.225 460.908,65.457 462.124,77.547 C462.13,77.609 462.122,77.687 462.128,77.749 C460.565,78.172 459.061,78.827 457.811,79.918 C448.272,88.255 440.323,98.536 432.423,108.801 C432.599,101.547 432.281,94.291 431.454,87.222 C431.63,86.088 431.689,84.962 431.823,83.83 C434.836,82.336 437.295,79.734 438.288,76.349 C442.356,62.485 430.47,48.48 422.028,38.622 C417.66,33.52 413.128,28.828 408.011,24.474 C402.305,19.619 397.348,17.637 390.453,14.952 C388.137,14.05 386.179,14.365 384.572,15.286 C383.802,15.091 383.106,14.805 382.3,14.655 C375.157,13.322 368.536,17.681 368.308,25.313 C367.961,36.929 369.882,46.874 370.302,56.577 C364.79,61.825 359.798,67.811 355.255,73.122 C349.408,56.698 337.716,42.708 321.48,36.709 C318.37,34.968 315.179,33.469 311.919,32.313 C306.835,27.144 300.069,27.351 295.631,31.104 C294.31,31.738 293.1,32.551 292.055,33.537 C291.569,33.832 291.22,34.211 290.962,34.706 C288.486,37.743 287.658,41.746 290.671,45.658 C290.97,46.047 291.27,46.404 291.569,46.79 C293.768,64.607 293.119,82.986 288.93,100.413 C287.989,104.329 286.75,108.173 285.56,111.985 C260.632,102.736 231.382,99.843 204.981,102.266 C175.451,97.347 142.478,111.06 123.005,133.302 C122.367,134.031 121.732,134.798 121.097,135.557 C95.563,153.334 76.916,179.306 74.383,209.693 C70.278,224.988 69.775,240.929 78.175,251.484 C49.245,258.121 29.312,287.957 16.017,313.185 C13.761,317.466 13.349,321.62 14.116,325.345 C12.716,329.636 12.797,334.565 15.277,339.666 C17.232,343.69 19.307,347.62 21.298,351.614 C29.991,384.254 48.423,415.591 68.521,444.036 C78.343,462.865 88.522,481.476 99.567,499.534 C107.697,512.826 126.446,512.159 134.49,500.36 C137.82,505.15 141.044,510 144.24,514.858 C152.418,532.958 164.341,550.138 172.653,561.535 C184.563,577.867 210.54,563.787 200.305,545.372 C192.855,531.968 184.909,518.975 176.637,506.189 C172.919,498.611 169.352,490.871 165.851,482.654 C165.437,481.682 165.056,480.773 164.668,479.849 C184.683,449.477 206.46,405.277 184.156,374.721 C188.015,368.973 188.828,361.359 183.697,353.16 C179.26,346.069 174.578,339.735 169.731,333.675 C166.426,328.702 162.19,323.984 157.145,319.491 C154.57,316.864 152.034,314.212 149.268,311.689 C146.403,305.584 140.697,300.977 134.17,299.035 C134.106,298.986 134.037,298.961 133.972,298.913 C134.705,289.105 127.762,280.992 119.008,277.935 C122.933,264.465 111.03,252.949 99.229,252.813 C100.127,251.758 100.996,250.687 101.729,249.548 C103.791,250.109 105.932,249.438 107.718,248.29 C110.741,257.003 119.67,263.834 129.164,264.874 C136.826,268.933 147.311,267.629 154.216,258.395 C156.833,254.896 159.572,251.483 162.298,248.061 C181.799,244.435 204.681,233.341 218.895,231.319 C245.006,227.604 272.147,228.242 299.102,228.057 C300.954,235.424 307.28,241.884 316.217,242.564 C328.669,243.511 343.723,240.784 353.201,232.765 C370.204,234.971 387.822,236.71 404.555,235.16 C404.818,235.205 405.06,235.302 405.327,235.337 C421.291,237.425 436.689,236.005 451.175,231.63 C458.016,235.767 466.934,237.066 474.457,233.426 C489.643,226.081 498.951,214.306 500.179,199.082 C505.755,187.183 497.835,175.907 486.939,171.853" fill="#A87C4F"/>
      <path d="M419.291,987.972 C419.11,985.379 418.469,983.106 417.5,981.138 C417.425,966.601 414.629,952.816 405.753,943.641 C404.568,942.415 403.164,941.588 401.684,941.036 C401.345,940.831 401.007,940.637 400.658,940.456 C400.594,937.955 400.551,935.453 400.485,932.952 C400.074,917.386 382.144,914.316 373.985,923.262 C373.281,923.024 372.546,922.934 371.81,922.871 C379.727,909.297 388.594,896.25 395.304,882.185 C402.765,866.544 388.758,850.082 374.405,853.351 C372.875,852.303 371.263,851.275 369.438,850.304 C355.463,842.868 339.277,841.773 323.821,840.172 C317.383,839.505 311.716,838.461 306.233,837.131 C302.532,832.327 298.819,827.528 295.285,822.621 C293.021,819.477 289.699,818.15 286.486,818.17 C275.301,811.313 258.006,824.324 262.327,837.766 C271.97,867.758 293.739,913.428 326.306,926.947 C327.244,944.287 350.293,955.909 361.54,941.274 C360.621,954.115 359.711,966.957 358.474,979.77 C357.625,988.557 364.975,993 372.232,992.622 C373.975,995.646 376.612,997.909 379.746,999.282 C379.745,1002.902 379.91,1006.506 379.822,1010.137 C379.798,1011.146 380.08,1011.927 380.193,1012.838 C379.912,1014.878 379.787,1016.929 379.457,1018.967 C375.98,1040.417 404.018,1048.246 411.939,1027.921 C415.751,1018.142 417.949,1008.375 418.833,998.208 C419.302,994.895 419.539,991.512 419.291,987.972" fill="#D0D2D3"/>
      <path d="M520.464,887.349 C520.196,879.72 518.511,872.678 515.792,866.34 C516.403,858.365 516.13,851.246 514.74,843.789 C514.804,840.932 514.16,838.124 512.854,835.617 C512.793,835.388 512.764,835.182 512.701,834.951 C510.032,825.106 498.101,820.133 489.284,825.424 C482.976,829.21 477.811,832.999 473.028,837.843 C453.51,837.771 451.415,865.763 469.073,871.655 C472.576,873.788 476.08,875.921 479.582,878.054 C486.324,896.237 476.812,952.743 477.797,964.428 C479.881,989.176 487.279,1011.874 498.733,1033.875 C503.975,1043.943 520.452,1039.27 520.084,1028.092 C519.238,1002.472 512.995,977.113 512.753,951.585 C512.548,929.842 521.222,908.978 520.464,887.349" fill="#D0D2D3"/>
      <path d="M473.841,970.394 C473.064,966.539 472.159,962.717 471.003,958.963 C469.475,953.997 466.433,950.564 462.807,948.262 C463.914,948.336 465.018,948.106 465.861,947.055 C467.313,945.24 468.313,943.276 469.113,941.258 C491.647,917.693 482.131,871.611 447.701,860.011 C411.439,847.793 377.088,895.763 394.172,927.365 C397.488,933.499 401.994,937.891 407.133,940.835 C412.082,957.973 416.173,975.045 419.648,992.287 C412.858,1019.878 413.687,1049.484 419.326,1077.271 C420.849,1084.773 426.805,1088.533 433.256,1089.02 C435.714,1124.636 436.209,1172.342 471.055,1188.493 C486.003,1195.422 501.493,1187.072 502.729,1170.317 C507.792,1101.685 500.786,1034.112 473.841,970.394" fill="#BE1E2D"/>
      <path d="M632.418,1240.465 C632.219,1231.832 632.019,1223.198 631.694,1214.576 C631.095,1198.706 630.746,1182.893 628.213,1167.654 C626.64,1126.965 625.052,1084.113 613.054,1045.781 C614.475,1023.094 613.317,999.414 605.202,980.614 C604.468,971.406 603.824,962.163 603.023,952.983 C599.921,917.423 594.951,873.206 555.291,862.913 C547.821,860.975 543.398,869.823 548.1,875.268 C551.411,879.104 554.268,883.123 556.93,887.22 C553.147,904.785 561.643,926.524 563.42,943.807 C563.533,944.913 563.58,946.044 563.662,947.162 C556.798,947.702 552.21,952.92 550.523,959.263 C549.206,959.196 547.825,959.592 547.081,960.756 C546.711,961.335 546.362,961.877 546.005,962.429 C544.01,962.833 542.154,964.832 542.625,967.214 C543.04,969.309 542.687,970.667 542.758,972.816 C542.846,975.464 544.259,978.033 545.419,980.353 L544.27,976.105 C545.129,983.349 549.972,987.29 556.378,990.092 C559.086,991.277 562.499,991.694 565.732,991.25 C566.231,991.837 566.706,992.443 567.205,993.03 C568.008,996.119 568.961,999.165 570.313,1002.096 C570.687,1002.908 571.264,1003.585 571.917,1004.199 C573.044,1019.738 570.188,1038.427 569.058,1045.337 C567.141,1057.06 565.141,1068.76 562.83,1080.412 C557.608,1106.741 551.409,1132.848 542.961,1158.341 C529.436,1199.157 497.584,1241.209 497.974,1284.358 C498,1287.222 499.409,1289.216 501.321,1290.465 C501.121,1291.42 500.958,1292.38 500.766,1293.337 C498.012,1289.466 493.649,1286.861 488.466,1286.861 C487.975,1286.861 487.529,1286.96 487.056,1287.002 C484.966,1281.286 479.844,1276.2 474.091,1274.702 C459.091,1235.869 426.703,1205.271 397.757,1171.232 C369.628,1138.155 343.728,1103.397 318.139,1068.343 C308.963,1055.773 295.495,1030.732 280.647,1014.354 C282.598,1007.183 285.592,1001.102 290.156,996.789 C308.061,979.868 288.603,956.532 268.401,959.418 C260.978,960.478 254.134,961.789 247.385,963.408 C242.027,931.944 240.334,900.646 244.698,868.449 C246.204,857.332 240.11,843.426 226.421,844.456 C207.937,845.847 191.272,851.022 181.099,868.069 C173.354,881.048 175.164,894.204 180.136,907.089 C173.587,931.045 176.583,958.89 178.882,984.654 C172.853,1035.309 172.628,1091.915 182.589,1139.428 C177.936,1145.14 174.824,1150.569 172.748,1157.881 C170.29,1166.538 175.715,1174.803 183.659,1177.322 C183.582,1184.681 183.544,1192.04 183.408,1199.4 C179.571,1201.388 176.789,1205.571 175.903,1209.775 C168.912,1212.948 164.253,1220.15 168.293,1231.129 C170.603,1237.405 176.158,1241.492 182.283,1241.233 C180.594,1293.089 177.733,1344.927 173.659,1396.64 C170.755,1402.658 169.106,1409.218 168.493,1415.881 C168.115,1416.5 167.626,1416.917 167.315,1417.648 C163.784,1425.957 161.845,1432.833 162.237,1441.9 C162.362,1444.797 163.208,1447.099 164.318,1449.129 C164.117,1451.046 164.052,1452.889 163.776,1454.868 C162.094,1466.902 173.044,1474.744 182.098,1473.839 C196.742,1480.849 202.917,1483.233 216.864,1483.199 C230.531,1489.155 244.858,1492.94 256.826,1494.431 C261.024,1494.954 264.573,1493.97 267.568,1492.174 C274.123,1493.412 281.123,1491.987 286.627,1486.564 C321.986,1451.722 361.163,1424.355 404.483,1401.788 C412.775,1397.608 421.074,1393.44 429.465,1389.422 C435.659,1386.456 439.195,1382.167 440.774,1377.437 C450.602,1382.837 464.725,1381.493 472.589,1370.216 C473.567,1368.814 474.404,1367.582 475.224,1366.37 C478.426,1363.844 481.019,1360.477 482.512,1356.258 C484.777,1349.858 487.043,1343.457 489.307,1337.057 C489.865,1335.48 490.152,1333.99 490.375,1332.525 C492.1,1332.708 493.832,1332.602 495.514,1332.237 C495.441,1333.478 495.314,1334.717 495.264,1335.96 C495.257,1336.112 495.32,1336.227 495.32,1336.375 C492.05,1335.115 488.591,1338.217 489.191,1341.987 C498.882,1402.775 564.65,1418.63 590.466,1469.314 C586.949,1471.338 584.471,1474.78 583.903,1478.899 C577.574,1482.926 575.588,1493.713 581.458,1499.135 C587.845,1505.035 595.73,1507.972 604.46,1507.072 C613.244,1506.164 623.676,1501.598 626.329,1492.375 C629.575,1488.19 631.699,1482.826 633.485,1475.481 C638.046,1456.717 638.081,1435.135 636.948,1413.447 C641.237,1356.856 636.577,1297.945 632.418,1240.465" fill="#6EBA75"/>
      <path d="M557.649,1430.787 C550.553,1424.011 542.154,1417.666 534.731,1409.76 C531.435,1405.515 528.097,1401.307 524.932,1396.952 C521.604,1392.37 517.397,1389.635 512.95,1388.268 C509.701,1379.72 502.612,1372.95 491.962,1373.916 C451.351,1377.599 410.449,1395.103 380.65,1423.667 C379.046,1424.111 377.446,1424.694 375.869,1425.581 C347.6,1441.496 320.954,1459.494 298.106,1482.015 C294.957,1481.926 291.812,1482.737 289.102,1484.376 C289.07,1484.308 289.051,1484.242 289.02,1484.173 C287.793,1481.48 283.645,1482.396 282.94,1484.969 C282.371,1487.048 281.968,1489.065 281.538,1491.093 C279.099,1492.615 277.404,1495.46 278,1499.298 C278.225,1500.742 278.452,1502.177 278.673,1503.62 C278.093,1504.297 277.505,1504.966 276.951,1505.676 C271.21,1513.025 276.85,1648.26 277.107,1696.239 C276.338,1698.162 275.728,1700.216 275.508,1702.547 C272.204,1737.58 237.508,1871.581 277.899,1905.568 C273.938,1905.814 269.974,1907.73 266.563,1912.008 C265.226,1913.688 264.128,1915.395 262.861,1917.078 C255.885,1911.057 243.761,1910.424 239.401,1920.184 C238.775,1921.588 238.284,1923.017 237.67,1924.422 C233.022,1923.892 228.424,1925.932 225.806,1931.96 C225.284,1933.162 224.904,1934.284 224.427,1935.458 C224.4,1935.445 224.372,1935.434 224.345,1935.422 C224.32,1935.568 224.294,1935.714 224.268,1935.859 C219.41,1947.886 216.701,1958.721 215.658,1972.119 C215.476,1974.453 215.942,1976.49 216.791,1978.276 C216.414,1980.413 216.037,1982.551 215.66,1984.689 C212.679,2001.607 234.185,2009.637 242.317,1996.875 C248.517,1999.916 256.349,1999.443 261.914,1994.466 C264.487,1996.114 267.305,1997.229 270.149,1997.706 C275.143,2007.943 286.978,2014.157 296.85,2010.099 C300.608,2012.716 305.477,2013.843 310.482,2013.615 C313.539,2020.271 319.579,2024.578 326.279,2025.945 C328.984,2032.075 334.801,2036.049 341.413,2037.589 C347.622,2045.562 360.646,2046.909 370.836,2042.168 C372.659,2043.905 374.898,2045.032 377.419,2045.251 C383.764,2053.62 395.908,2058.406 407.255,2053.068 C433.62,2040.664 460.321,2028.725 486.427,2015.74 C488.726,2015.32 490.94,2014.648 492.777,2013.414 C494.377,2012.339 495.976,2011.265 497.575,2010.189 C498.845,2009.335 499.923,2008.413 500.951,2007.475 C517.436,1997.367 522.851,1975.555 522.962,1955.68 C523.07,1936.153 521.651,1907.531 499.962,1899.615 C490.899,1896.307 482.968,1897.982 477.012,1902.455 C477.147,1901.854 477.303,1901.256 477.437,1900.655 C479.404,1899.74 481.361,1898.584 483.262,1896.973 C496.324,1885.896 506.951,1872.865 515.398,1858.581 C519.992,1856.943 524.139,1853.849 527.082,1849.008 C531.912,1845.256 535.143,1839.406 534.837,1831.315 C534.925,1827.804 534.883,1824.292 534.906,1820.781 C539.367,1799.382 542.04,1778.375 541,1756.151 C549.712,1702.835 552.765,1648.307 556.256,1594.396 C567.764,1550.078 569.82,1500.517 576.924,1457.999 C579.11,1444.914 568.756,1433.169 557.649,1430.787" fill="#8A6950"/>
      <path d="M561.608,992.972 C560.151,985.408 554.535,981.829 548.389,981.407 C545.808,978.14 543.138,975.145 540.522,972.47 C540.311,967.968 540.1,963.468 539.889,958.966 C543.429,959.071 547.134,957.972 549.261,955.471 C556.989,946.384 557.235,936.929 555.434,926.811 C562.367,909.362 561.86,889.005 554.668,871.496 C552.719,866.746 549.251,863.389 543.858,863.265 C543.013,863.246 542.283,863.303 541.608,863.415 C541.079,862.769 540.56,862.111 539.937,861.591 C538.791,856.841 537.647,852.09 536.502,847.339 C532.82,832.065 509.457,838.535 512.981,853.824 C514.7,861.282 516.419,868.74 518.139,876.198 C518.141,878.521 518.168,880.852 518.148,883.166 C517.511,887.377 517.049,891.66 516.732,895.994 C511.933,898.335 508.249,902.806 508.878,908.361 C513.138,946.035 518.785,983.465 523.208,1021.073 C519.284,1042.688 517.635,1065.055 514.962,1087.022 C511.47,1089.122 508.701,1092.54 507.589,1097.687 C499.573,1134.799 490.836,1173.764 488.322,1212.124 C487.692,1214.706 487.067,1217.29 486.442,1219.874 C482.023,1211.583 477.453,1203.435 473.065,1195.486 C467.289,1185.023 461.436,1171.957 454.093,1160.495 C447.559,1137.271 433.859,1114.13 423.818,1095.332 C420.632,1089.367 417.168,1082.689 413.503,1075.852 C412.289,1073.29 411.097,1070.754 409.98,1068.272 C399.095,1044.098 387.974,1012.782 370.962,989.658 C370.625,985.708 369.314,981.796 366.67,978.413 C345.092,950.789 324.54,920.08 300.273,894.788 C293.001,887.208 287.146,882.219 279.846,881.301 C279.773,881.153 279.711,881.002 279.639,880.852 C278.702,875.439 278.037,869.944 277.958,864.26 C277.794,856.172 273.185,851.004 267.367,848.65 C267.32,848.047 267.305,847.461 267.254,846.856 C266.803,841.478 262.257,837.497 257.511,836.816 C257.091,836.442 256.791,835.953 256.331,835.618 C254.701,834.431 251.795,835.251 250.937,837.032 C250.601,837.728 250.378,838.452 250.129,839.169 C249.422,839.873 248.746,840.657 248.2,841.695 C234.04,868.648 236.473,902.169 243.194,931.985 C240.525,935.2 239.444,939.689 240.251,944.332 L240.449,945.473 C241.197,949.781 244.818,952.864 248.911,954.261 C248.694,957.003 249.187,959.925 250.118,962.718 C252.064,968.553 257.575,971.764 263.642,970.396 C267.907,969.434 271.593,967.347 274.61,964.595 C280.294,965.946 286.233,966.317 292.337,965.725 C293.624,966.414 294.86,967.208 296.198,967.786 C294.496,970.857 293.116,973.949 292.113,977.066 C283.829,985.971 279.992,999.152 284.562,1016.561 C286.78,1025.007 292.634,1029.469 299.241,1030.786 C300.415,1032.115 301.66,1033.295 302.865,1034.5 C315.925,1057.341 335.629,1078.834 348.062,1095.995 C349.212,1097.581 350.437,1098.897 351.696,1100.076 C360.253,1117.09 372.587,1133.537 380.983,1147.004 C392.068,1164.786 405.145,1193.089 426.234,1200.817 C435.932,1215.899 446.602,1230.498 459.403,1241.687 C465.157,1251.726 471.756,1261.172 480.024,1269.41 C482.176,1272.921 484.219,1276.534 486.58,1279.845 C493.975,1290.216 511.564,1284.355 507.971,1270.827 C506.072,1263.679 503.557,1256.604 500.687,1249.604 C504.784,1249.221 508.606,1247.003 510.838,1242.273 C543.928,1172.155 576.667,1071.158 561.608,992.972" fill="#1F8028"/>
      <path d="M344.336,2072.551 C343.7,2069.712 342.6,2067.556 341.467,2065.253 C342.232,2061.967 342.263,2058.333 341.053,2054.332 C332.04,2024.518 306.751,2012.696 277.773,2008.832 C276.331,2008.639 274.984,2008.594 273.701,2008.641 C269.759,2006.983 265.768,2005.492 261.828,2004.187 C248.18,1999.665 238.406,2007.642 235.103,2018.242 C231.459,2017.95 227.534,2018.619 223.489,2020.742 C205.511,2030.181 188.155,2045.304 177.146,2063.448 C167.033,2069.758 159.122,2078.884 156.399,2090.005 C147.074,2128.103 206.428,2133.953 229.235,2134.429 C263.635,2135.148 326.89,2136.257 338.162,2094.105 C339.002,2090.963 339.462,2087.956 339.748,2085.013 C343.461,2082.305 345.432,2077.441 344.336,2072.551" fill="#404041"/>
      <path d="M646.487,2082.681 C627.88,2068.636 602.697,2063.296 579.707,2063.46 C576.991,2063.479 574.104,2064.244 571.369,2065.393 C565.85,2061.9 560.264,2059.029 556.46,2057.012 C546.712,2051.844 538.154,2045.531 529.665,2038.553 C523.956,2033.86 518.998,2028.479 512.404,2025.944 C507.157,2017.346 496.031,2011.947 483.633,2017.246 C463.721,2025.756 440.338,2033.413 419.245,2043.185 C412.975,2040.075 405.202,2040.072 398.624,2046.058 C394.898,2049.448 391.855,2053.029 389.221,2056.726 C385.606,2057.254 382.132,2058.785 379.448,2061.591 C371.254,2070.159 369.373,2082.655 374.807,2093.111 C374.9,2093.313 375.004,2093.504 375.106,2093.703 C375.318,2094.088 375.463,2094.493 375.696,2094.873 C375.723,2094.837 375.749,2094.803 375.776,2094.767 C376.907,2096.591 378.464,2098.117 380.195,2099.401 C380.511,2101.297 380.792,2103.182 381.26,2105.126 C386.058,2125.042 419.785,2121.376 417.764,2100.186 C416.978,2091.945 420.266,2087.702 425.41,2084.89 C428.867,2089.291 434.236,2092.065 441.463,2091.411 C442.088,2091.355 442.585,2091.218 443.191,2091.152 C458.868,2114.766 503.838,2121.465 538.21,2115.503 C566.508,2129.034 605.336,2129.78 634.322,2127.594 C659.371,2125.706 665.551,2097.071 646.487,2082.681" fill="#404041"/>
      <g clip-path="url(#Clip_1)" opacity="0.2">
        <path d="M322.01,2098.114 C296.738,2092.725 270.209,2097.94 244.37,2096.115 C237.452,2095.626 204.346,2096.077 199.098,2090.555 C200.189,2089.243 201.585,2087.544 203.338,2085.398 C206.986,2081.97 210.634,2078.542 214.282,2075.114 C220.669,2069.114 288.669,2012.219 266.31,2001.458 C245.793,1991.584 221.715,2020.461 207.5,2032.952 C189.548,2048.727 154.669,2071.061 158.713,2099.54 C162.885,2128.919 199.379,2134.436 223.066,2138.133 C256.674,2143.377 295.019,2148.891 326.807,2134.816 C342.57,2127.836 338.061,2101.536 322.01,2098.114 M258.353,1918.174 C257.954,1915.586 254.608,1914.026 252.291,1914.732 C218.319,1925.091 187.578,1965.846 207.243,2000.87 C219.295,2022.335 252.327,2003.082 240.268,1981.566 C234.29,1970.9 244.182,1959.173 249.615,1950.477 C256.12,1940.062 260.252,1930.512 258.353,1918.174 M355.904,1905.013 C315.473,1885.321 299.716,1861.044 301.228,1814.43 C302.46,1776.412 304.172,1738.402 305.644,1700.393 C307.814,1644.351 315.608,1583.946 309.243,1527.068 C336.674,1515.046 365.901,1485.282 382.38,1473.221 C399.464,1460.717 444.16,1416.257 465.103,1415.356 C494.428,1414.093 528.784,1459.39 560.282,1466.548 C572.745,1469.38 584.207,1456.143 577.255,1444.469 C554.168,1405.703 488.116,1351.706 441.784,1375.463 C409.904,1391.81 380.47,1417.886 352.061,1439.436 C340.767,1448.004 329.627,1456.634 318.851,1465.842 C314.404,1469.641 307.56,1477.828 300.509,1485.777 C295.344,1479.69 284.209,1481.795 281.409,1490.104 C279.574,1495.551 277.901,1501.084 276.355,1506.684 C270.258,1511.049 267.059,1520.49 271.558,1526.39 C253.916,1608.116 261.234,1702.263 257.633,1783.329 C254.133,1862.089 257.491,1907.315 332.649,1944.797 C359.156,1958.017 382.525,1917.98 355.904,1905.013 M632.613,2093.442 C591.574,2087.417 549.01,2093.055 508.369,2085.278 C474.439,2078.787 454.353,2052.208 424.287,2038.712 C431.516,2023.938 435.246,2007.894 439.366,1990.789 C448.021,1954.856 469.214,1938.003 498.057,1916.982 C508.138,1909.635 509.936,1899.181 506.612,1890.833 C506.808,1890.699 507.022,1890.593 507.217,1890.458 C526.544,1877.089 515.184,1845.365 490.812,1851.546 C466.965,1857.593 445.311,1875.832 428.852,1893.443 C427.015,1895.408 424.942,1897.642 422.798,1900.043 C425.386,1852.098 435.009,1802.699 441.32,1756.504 C448.537,1703.688 456.321,1650.872 465.416,1598.349 C474.466,1546.085 492.411,1490.17 486.325,1436.809 C485.575,1430.233 477.373,1427.139 473.469,1433.327 C462.127,1451.306 454.648,1471.092 448.901,1491.541 C444.64,1500.844 442.381,1511.893 440.054,1520.356 C434.932,1538.983 430.373,1557.885 430.624,1577.164 C421.44,1623.24 412.84,1669.369 405.525,1715.794 C398.498,1760.388 392.59,1805.158 387.401,1850.002 C384.349,1876.387 380.764,1902.961 379.068,1929.473 C377.421,1955.225 385.443,1977.881 372.329,2001.032 C366.474,2011.366 370.903,2021.601 378.744,2026.762 C377.262,2029.295 375.8,2031.835 373.995,2034.252 C363.998,2047.635 373.159,2061.014 385.831,2065.168 C381.779,2072.777 378.607,2080.855 376.103,2090.508 C376.246,2090.548 376.391,2090.587 376.534,2090.627 C373.431,2107.283 396.764,2120.165 405.25,2102.796 C408.677,2094.303 413.188,2086.478 418.57,2079.19 C430.517,2089.408 439.273,2103.263 452.416,2112.53 C465.545,2121.787 480.109,2127.418 495.785,2130.924 C537.399,2140.23 585.258,2138.94 627.111,2134.096 C647.899,2131.691 657.862,2097.15 632.613,2093.442 M604.9,967.196 C602.833,962.715 594.608,963.586 593.866,968.638 C582.255,1047.815 607.857,1137.829 613.201,1217.596 C618.964,1303.61 618.392,1390.643 603.083,1475.633 C602.76,1475.464 602.465,1475.253 602.14,1475.087 C587.025,1466.324 568.658,1488.16 582.882,1500.046 C591.312,1507.09 597.232,1511.597 606.374,1517.704 C614.715,1523.277 629.15,1518.081 630.895,1507.728 C646.625,1414.471 651.386,1321.937 645.357,1227.518 C640.16,1146.148 639.278,1041.764 604.9,967.196 M263.856,1356.557 C263.128,1311.266 261.784,1265.984 259.773,1220.732 C256.556,1148.335 264.604,1054.182 228.242,989.072 C226.282,985.562 221.328,986.663 220.136,990.132 C195.392,1062.192 217.346,1156.211 220.391,1231.176 C222.088,1272.953 223.242,1314.749 223.854,1356.557 C224.426,1395.607 218.963,1437.787 231.435,1475.072 C235.691,1487.798 252.74,1487.576 257.094,1475.072 C270.037,1437.903 264.484,1395.561 263.856,1356.557 M123.244,506.268 C148.018,520.096 152.087,541.116 164.339,564 C171.394,577.175 189.937,572.725 194.287,560.086 C197.414,551 198.108,542.558 197.132,534.644 C202.003,543.209 222.604,555.384 224.195,564.453 C220.278,568.726 201.429,570.119 202.062,576.448 C195.584,576.993 189.819,580.752 188.246,589.331 C187.517,593.305 186.789,597.28 186.06,601.255 C184.451,610.025 188.243,617.205 194.329,620.891 C215.6,701.054 233.485,806.329 321.817,828.766 C341.635,833.8 365.938,837.729 390.66,838.418 C399.058,850.146 416.3,856.48 432.073,853.858 C454.891,850.063 477.815,831.866 492.158,810.696 C501.427,802.628 508.953,792.538 514.008,779.994 C516.276,777.228 518.47,774.431 520.524,771.651 C530.05,758.754 543.488,742.191 540.239,725.118 C540.066,724.207 538.957,723.674 538.118,723.913 C525.784,727.427 516.866,738.565 508.105,748.225 C503.822,746.977 498.995,747.772 495.026,751.82 C454.01,793.644 373.775,810.252 318.336,780.098 C283.171,760.97 274.466,721.999 261.737,687.538 C251.9,660.908 241.631,634.516 231.244,608.135 C234.016,604.628 235.86,600.697 236.249,596.056 C236.582,595.833 236.941,595.747 237.268,595.497 C258.482,579.28 259.639,559.185 248.915,534.567 C241.914,518.493 227.65,505.673 221.362,489.522 C209.449,458.922 225.108,428.119 230.989,398.649 C242.271,342.116 210.915,285.843 158.268,261.775 C231.032,225.162 295.913,238.841 375.714,245.336 C415.089,248.54 472.439,250.07 491.734,208.346 C495.844,199.456 488.677,184.274 476.986,189.163 C407.118,218.377 343.977,195.86 270.414,192.958 C243.043,191.877 212.707,194.464 187.108,205.173 C189.979,199.888 191.907,194.267 191.92,187.98 C191.923,186.287 190.327,184.295 188.47,184.53 C170.855,186.759 155.009,204.85 143.697,217.412 C140.185,221.312 136.792,225.761 133.909,230.501 C134.866,226.434 135.904,222.383 137.321,218.416 C142.391,204.218 150.109,191.385 159.693,179.783 C164.426,174.054 157.216,166.69 151.505,171.594 C129.121,190.816 106.06,225.017 112.888,255.928 C114.555,263.472 124.044,262.179 126.835,256.451 C127.111,259.055 127.616,261.663 128.645,264.263 C130.864,269.866 136.336,273.131 141.875,273.858 C142.093,286.463 147.885,294.219 157.918,307.676 C166.277,318.885 178.679,327.908 184.904,340.601 C192.057,355.185 191.525,368.34 188.613,381.33 C188.598,378.377 188.512,375.916 188.343,374.204 C187.887,369.571 181.59,366.928 178.958,371.62 C174.374,365.787 163.713,364.018 159.825,372.121 C158.636,374.599 157.471,377.086 156.297,379.569 C157.82,371.023 157.572,362.594 152.632,354.429 C151.127,351.941 146.752,352.171 146.102,355.282 C142.807,371.06 131.581,385.527 124.382,400.388 C124.398,400.312 124.415,400.22 124.431,400.145 C128.109,382.851 131.787,362.883 125.645,345.879 C124.757,343.422 121.473,342.042 119.467,344.248 C112.798,351.586 108.259,360.746 104.607,370.286 C105.022,362.989 104.813,355.809 103.819,349.23 C103.344,346.091 100.349,344.133 97.689,343.101 C96.646,342.696 95.884,342.656 94.764,342.83 C84.758,344.387 83.516,359.302 81.194,367.119 C79.64,372.351 78.008,377.595 76.459,382.861 C63.555,362.755 49.492,343.52 30.27,329.056 C26.643,326.327 23.119,330.833 23.574,334.204 C30.355,384.461 61.974,438.246 89.846,479.848 C99.795,494.699 108.066,497.796 123.244,506.268 M439.652,366.271 C452.671,386.887 467.891,381.897 454.527,361.43 C435.719,332.625 405.411,324.946 375.227,335.965 C363.238,333.106 353.041,328.775 339.742,332.505 C325.432,336.519 313.532,346.739 306.033,359.321 C289.809,386.54 290.424,430.654 305.372,458.104 C306.495,460.165 311.053,461.287 311.37,458.876 C315.909,424.345 314.501,391.979 338.835,371.244 C351.501,360.45 366.592,373.481 381.172,371.626 C397.86,369.502 427.884,347.637 439.652,366.271 M536.208,585.665 C531.137,560.375 493.116,571.212 497.702,596.281 C498.527,600.793 506.471,627.328 503.926,630.304 C501.238,633.446 490.898,634.357 487.669,635.202 C469.351,639.995 451.032,644.722 432.781,649.77 C424.774,651.985 416.704,660.799 417.613,669.691 C418.43,677.675 419.246,685.659 420.062,693.642 C421.223,704.991 428.484,713.531 440.462,714.041 C450.982,714.489 456.658,711.823 463.968,704.566 C468.939,699.63 471.045,691.011 468.441,684.26 C490.411,679.773 514.142,674.492 529.969,662.137 C554.293,643.15 541.239,610.753 536.208,585.665 M437.926,536.119 C437.658,536.626 437.39,537.133 437.122,537.639 C433.215,545.03 435.611,553.047 442.381,557.697 C482.933,585.55 546.905,545.603 579.563,520.647 C606.638,499.958 634.632,468.661 645.967,434.07 C656.508,413.752 619.949,317.382 618.882,349.653 C618.756,353.47 614.23,374.75 613.677,378.573 C611.745,380.594 610.122,382.913 609.061,385.559 C601.96,403.274 597.899,420.638 590.161,437.047 C574.855,460.309 553.716,481.448 530.529,498.128 C527.719,499.959 524.927,501.846 522.094,503.589 C502.241,515.8 481.306,527.528 458.148,531.254 C451.863,532.265 442.016,528.381 437.926,536.119 M140.458,578.232 C139.429,567.997 134.552,558.211 125.947,551.562 C118.079,545.483 108.377,543.73 99.291,548.593 C94.361,551.232 90.221,555.079 87.268,559.855 C80.519,570.769 80.318,585.943 90.317,595.07 C92.059,596.66 94.114,597.897 96.27,598.924 C99.495,603.263 103.571,607.015 108.225,609.92 C117.356,615.621 129.294,611.614 134.786,602.956 C137.761,598.268 139.492,593.124 140.266,587.891 C141.654,585.49 142.175,582.609 141.256,580.002 C141.018,579.326 140.726,578.812 140.458,578.232" fill="#231F20"/>
      </g>
      <path d="M418.216,430.35 C424.524,429.67 429.085,424.005 428.405,417.698 C428.216,415.95 427.616,414.358 426.754,412.953 C426.585,413.209 426.421,413.469 426.161,413.701 C425.644,414.162 424.894,414.42 424.21,414.441 C422.732,414.486 421.148,413.793 420.631,412.28 C420.584,412.14 420.536,412.001 420.488,411.86 C419.99,410.405 420.432,409.163 421.278,408.331 C419.576,407.639 417.707,407.298 415.753,407.509 C409.445,408.189 404.883,413.854 405.564,420.161 C406.244,426.469 411.909,431.031 418.216,430.35 M370.46,415.816 C370.172,416.252 369.894,416.694 369.453,417.086 C368.575,417.87 367.301,418.309 366.138,418.344 C363.627,418.422 360.939,417.242 360.06,414.674 C359.979,414.437 359.897,414.199 359.816,413.961 C358.97,411.489 359.721,409.378 361.158,407.966 C358.268,406.791 355.093,406.212 351.773,406.57 C341.06,407.725 333.311,417.346 334.466,428.06 C335.622,438.774 345.244,446.523 355.957,445.367 C366.671,444.212 374.419,434.59 373.264,423.876 C372.944,420.907 371.923,418.203 370.46,415.816 M185.952,1455.115 C185.978,1458.147 188.534,1461.158 190.811,1465.749 C194.122,1462.229 197.879,1459.897 197.633,1458.122 C197.225,1455.191 194.233,1452.618 192.33,1449.894 C190.067,1451.636 185.936,1453.393 185.952,1455.115 M473.409,1325.307 C478.196,1323.15 481.419,1317.519 483.625,1315.214 C483.102,1304.295 478.241,1299.477 471.499,1300.142 C463.953,1300.886 460.515,1305.72 460.366,1312.853 C460.213,1320.203 467.652,1327.9 473.409,1325.307 M206.859,364.251 C206.859,364.251 148.935,279.949 121.53,277.784 C119.243,282.349 116.954,286.914 114.667,291.479 C121.678,293.648 128.689,295.817 136.435,298.214 C160.195,327.465 186.982,340.893 186.332,381.531 C185.841,412.169 167.961,459.568 165.782,489.171 C163.628,490.512 208.556,551.602 205.94,555.366 C204.515,557.416 184.738,567.483 184.738,567.483 C184.738,567.483 150.393,508.894 148.894,509.827 C155.67,521.734 174.734,566.372 179.215,575.885 C184.685,587.501 222.777,566.821 224.195,564.453 C225.427,562.396 173.829,498.846 174.242,489.208 C174.711,478.334 206.859,364.251 206.859,364.251 M128.92,273.262 C132.066,270.804 135.843,268.292 137.271,264.921 C137.848,263.559 133.351,259.197 130.423,257.414 C126.797,255.206 122.403,254.258 119.571,253.218 C117.399,245.19 115.635,238.672 113.564,231.021 C109.502,234.625 106.938,236.9 102.648,240.708 C102.426,215.893 113.085,196.159 118.552,175.142 C96.829,200.597 91.111,230.567 94.377,262.681 C90.861,264.637 87.877,266.296 84.894,267.955 C84.85,269.121 84.807,270.287 84.763,271.452 C97.108,273.386 109.453,275.318 121.797,277.251 L121.169,277.732 C121.17,277.732 121.171,277.733 121.171,277.733 C121.3,277.742 121.403,277.774 121.53,277.784 C121.585,277.674 121.639,277.566 121.695,277.456 C124.15,276.116 126.746,274.96 128.92,273.262 M425.567,319.59 C422.358,308.784 398.05,301.61 386.981,307.535 C383.823,309.226 386.332,317.246 387.061,318.816 C388.701,322.352 423.97,321.516 425.567,319.59 M343.247,315.524 C322.328,288.513 286.031,320.956 288.712,349.653 C302.325,335.564 323.599,325.066 343.247,315.524 M642.964,2119.578 C633.479,2120.142 617.881,2119.782 611.813,2119.536 C570.802,2117.885 529.772,2116.452 488.823,2113.798 C480.486,2113.258 471.685,2109.03 464.499,2104.351 C455.447,2098.457 447.757,2090.439 439.623,2083.178 C432.159,2076.516 423.992,2074.424 414.887,2079.21 C410.05,2081.752 407.458,2085.041 409.241,2091.611 C413.393,2106.914 411.555,2108.781 395.726,2108.216 C391.97,2108.081 388.23,2107.483 382.555,2106.901 C380.859,2090.508 379.354,2075.962 377.712,2060.093 C411.801,2056.894 440.729,2043.199 467.866,2024.131 C480.473,2015.273 498.456,2012.118 509.887,2022.517 C538.561,2048.601 563.255,2066.12 616.563,2081.06 C628.86,2084.506 672.905,2089.659 642.964,2119.578 M377.55,1955.945 C380.338,1946.766 383.95,1937.293 386.071,1927.498 C400.874,1859.16 414.011,1790.573 419.426,1720.676 C424.232,1658.627 430.092,1596.66 435.51,1534.659 C437.673,1509.899 447.629,1487.475 458.191,1465.626 C462.084,1457.575 471.097,1451.807 478.284,1445.588 C488.122,1437.074 490.492,1431.937 485.655,1426.997 C480.881,1422.121 474.172,1423.368 466.026,1432.518 C455.416,1444.433 446.573,1457.288 439.277,1472.009 C421.655,1507.565 417.545,1545.524 414.248,1583.881 C408.7,1648.428 404.917,1713.162 397.748,1777.523 C392.432,1825.243 383.123,1872.53 375.107,1919.927 C373.627,1928.684 370.018,1937.116 367.049,1945.577 C361.617,1961.065 361.515,1961.03 375.917,1969.776 C377.527,1970.753 379.086,1971.814 383.304,1974.541 C373.317,1998.709 369.293,2024.175 355.752,2045.808 C344.197,2034.904 334.463,2023.687 322.757,2015.189 C308.387,2004.756 292.789,1995.773 276.946,1987.683 C260.978,1979.529 244.641,1981.543 229.168,1990.608 C225.985,1992.473 222.471,1993.773 217.916,1995.888 C214.7,1972.791 219.585,1952.583 228.143,1933.185 C230.034,1928.9 234.505,1925.112 238.69,1922.596 C254.457,1913.119 285.46,1916.873 299.412,1929.244 C302.812,1932.259 306.581,1934.859 311.659,1938.797 C312.052,1920.369 304.673,1914.009 278.401,1907.103 C282.276,1895.314 277,1885.411 269.747,1877.425 C263.605,1870.661 263.572,1864.319 264.794,1856.353 C277.489,1773.608 278.692,1690.24 278.084,1606.77 C277.832,1572.162 278.042,1537.55 278.042,1500.106 C343.823,1453.736 407.647,1399.581 488.751,1375.369 C521.069,1397.306 551.2,1418.951 572.873,1450.138 C560.767,1510.548 556.098,1571.787 551.767,1633.089 C548.332,1681.698 544.561,1730.29 540.18,1778.822 C539.22,1789.461 534.564,1799.715 532.499,1810.319 C530.807,1819.015 529.688,1827.966 529.674,1836.806 C529.658,1847.079 525.587,1853.807 516.424,1858.109 C511.86,1860.253 505.657,1862.173 503.685,1865.995 C495.817,1881.247 483.882,1890.02 467.369,1893.441 C465.003,1893.93 462.785,1895.755 460.801,1897.341 C455.73,1901.4 449.157,1906.519 453.65,1913.079 C459.159,1921.119 464.577,1913.4 469.649,1910.166 C472.881,1908.104 476.138,1905.956 479.649,1904.482 C490.827,1899.792 495.503,1900.962 502.258,1911.455 C520.464,1939.736 523.201,1969.794 511.959,2002.935 C485.46,1993.538 464.864,2004.529 444.587,2019.376 C425.32,2033.485 402.785,2040.958 377.503,2048.601 C378.82,2042.006 379.307,2037.897 380.481,2033.993 C384.541,2020.486 389.106,2007.127 392.991,1993.571 C399.503,1970.849 398.393,1968.298 377.55,1955.945 M316.491,2120.792 C269.012,2132.786 231.888,2131.887 184.65,2119.079 C178.246,2117.343 172.637,2112.674 166.223,2109.121 C155.517,2090.687 164.737,2085.13 174.038,2075.397 C199.641,2048.601 222.436,2036.346 252.189,2005.354 C289.037,2005.354 317.435,2032.464 329.719,2043.593 C334.284,2047.728 338.334,2053.583 340.122,2059.418 C345.522,2077.039 334.644,2116.207 316.491,2120.792 M251.669,1060.631 C249.531,1041.047 243.343,1021.84 238.153,1002.692 C236.495,996.572 232.111,991.192 228.974,985.474 C227.29,986.083 225.607,986.692 223.924,987.3 C230.59,1027.917 238.885,1068.352 243.465,1109.203 C248.099,1150.543 249.23,1192.285 251.575,1233.869 C253.921,1275.466 257.195,1317.072 257.621,1358.7 C258.047,1400.21 255.443,1441.751 254.116,1484.972 C232.896,1486.693 214.12,1480.95 195.363,1475.183 C193.548,1474.625 191.919,1473.477 190.176,1472.666 C161.805,1459.47 160.803,1459.277 166.93,1427.907 C179.409,1364.04 185.236,1299.806 181.327,1234.788 C180.868,1227.147 179.222,1219.524 179.383,1211.918 C179.478,1207.425 180.684,1201.226 183.755,1198.847 C193.146,1191.572 190.923,1183.894 187.676,1174.877 C184.934,1167.263 182.074,1159.145 181.975,1151.216 C181.292,1096.7 181.653,1042.171 181.006,987.655 C180.579,951.776 179.021,915.91 177.998,880.038 C177.891,876.265 177.984,872.486 177.984,867.232 C195.291,859.296 212.561,851.376 230.276,843.253 C229.712,876.05 228.457,906.027 228.897,935.98 C229.312,964.325 237.451,971.327 266.641,972.03 C272.321,972.167 278.009,972.049 287.057,972.049 C279.449,985.114 273.265,995.734 268.484,1003.943 C278.882,1017.492 287.702,1028.844 296.372,1040.309 C318.411,1069.454 340.18,1098.806 362.429,1127.79 C398.349,1174.585 434.629,1221.103 470.572,1267.879 C474.359,1272.807 476.553,1278.936 480.155,1284.035 C483.128,1288.244 487.089,1291.755 492.155,1297.25 C488.008,1317.798 483.338,1340.935 478.773,1363.556 C400.778,1392.739 335.407,1440.409 270.159,1493.641 C268.988,1487.958 267.231,1483.524 267.307,1479.122 C267.694,1456.682 268.102,1434.225 269.332,1411.82 C272.93,1346.342 269.289,1280.998 265.225,1215.73 C262,1163.943 257.304,1112.212 251.669,1060.631 M253.426,1545.916 C249.8,1565.692 221.661,1584.287 202.288,1580.003 C189.293,1577.129 176.489,1572.39 164.446,1566.696 C159.436,1564.326 154.465,1557.772 153.267,1552.292 C150.651,1540.331 153.228,1528.69 164.232,1516.485 C167.384,1521.661 168.527,1524.594 170.565,1526.63 C173.405,1529.467 176.914,1531.634 180.137,1534.089 C182.832,1530.169 187.205,1526.488 187.8,1522.272 C188.565,1516.851 186.116,1511.025 185.396,1505.33 C184.785,1500.497 184.665,1495.602 184.264,1489.818 C208.352,1494.774 230.686,1499.368 255.779,1504.53 C255.106,1518.426 255.892,1532.469 253.426,1545.916 M240.903,901.016 C242.003,880.636 245.58,860.385 248.327,840.109 C248.532,838.601 250.617,837.347 252.705,834.98 C255.365,839.211 258.03,842.621 259.828,846.439 C279.375,887.965 311.065,919.743 343.864,950.484 C349.734,955.985 352.814,961.812 356.081,968.963 C367.765,994.536 379.414,1020.406 394.202,1044.223 C434.361,1108.905 463.567,1178.282 487.152,1250.308 C489.737,1258.204 492.224,1266.134 494.569,1274.104 C494.871,1275.125 494.032,1276.485 492.853,1281.05 C421.991,1189.462 352.432,1099.559 282.145,1008.715 C294.716,987.133 305.949,967.904 317.025,948.586 C317.382,947.964 316.137,946.423 315.639,945.311 C314.453,945.23 312.63,944.617 312.181,945.153 C296.626,963.74 274.603,955.598 255.406,958.798 C247.123,960.178 244.13,954.132 243.589,947.027 C242.42,931.695 240.081,916.263 240.903,901.016 M405.538,655.204 L405.538,706.63 C363.065,710.664 327.466,675.602 320.929,620.133 C346.814,638.531 371.409,658.182 405.538,655.204 M393.907,377.501 C390.66,371.487 397.991,365.001 405.034,363.047 C416.694,359.812 447.816,370.148 453.823,400.968 C433.112,423.323 415.419,439.276 402.779,460.503 C397.236,469.812 395.26,480.403 381.113,482.011 C364.976,483.845 349.39,485.489 337.404,472.393 C331.209,465.626 325.431,457.563 322.346,449.042 C313.568,424.805 317.186,400.923 330.108,379.131 C341.416,360.061 387.508,359.415 398.304,408.219 C398.495,409.082 401.382,391.343 393.907,377.501 M152.218,569.855 C145.22,557.873 135.969,548.595 123.054,543.437 C118.399,541.578 113.349,540.307 108.37,539.763 C102.983,539.173 97.035,540.771 97.16,547.102 C97.22,550.106 101.825,553.8 105.192,555.796 C111.99,559.825 119.349,562.906 128.535,567.381 C121.707,573.692 117.413,577.66 112.628,582.082 C121.982,592.358 129.682,582.728 138.253,581.625 C141.679,586.994 145.048,592.274 148.295,597.363 C146.029,609.515 138.529,613.221 127.656,613.868 C103.052,615.335 86.098,603.643 77.075,577.797 C67.773,551.154 76.838,528.871 96.335,514.427 C102.968,509.514 110.392,508.574 117.949,513.204 C124.912,517.469 132.018,521.502 139.07,525.642 C146.622,509.218 133.835,496.308 104.36,490.931 C82.042,445.203 58.631,399.772 25.364,360.064 C5.807,336.719 19.539,292.198 47.9,282.061 C51.3,280.845 54.134,278.116 57.355,276.309 C63.764,272.715 70.26,269.274 80.192,263.886 C80.192,250.205 78.803,232.959 80.481,216.015 C83.981,180.705 98.323,150.286 128.009,129.38 C154.133,110.982 183.31,108.503 216.041,116.24 C209.116,121.903 203.966,126.115 199.539,129.734 C216.983,129.282 234.357,128.59 251.736,128.433 C285.781,128.126 306.519,103.935 301.32,70.151 C300.645,65.768 299.538,61.452 298.479,56.377 C301.371,56.083 303.595,55.857 308.638,55.343 C304.358,45.662 300.415,36.743 296.135,27.06 C315.367,26.711 329.079,35.946 340.156,50.219 C352.456,66.066 350.289,81.951 339.922,98.448 C361.149,84.386 375.586,66.331 379.098,38.29 C384.734,43.591 388.791,47.407 395.09,53.332 C390.746,35.798 380.591,25.182 370.708,13.578 C404.181,15.87 426.727,40.021 429.406,75.965 C430.937,96.503 431.838,117.157 417.846,134.785 C416.677,136.258 415.921,138.132 415.291,139.932 C414.899,141.051 415.103,142.379 415.04,143.633 C438.021,132.043 453.444,106.344 463.157,61.509 C478.543,79.152 487.413,97.171 488.569,118.849 C489.714,140.322 487.878,161.149 472.352,178.822 C473.371,179.932 474.389,181.042 475.408,182.153 C483.981,179.937 492.554,177.721 501.078,175.518 C499.458,203.045 485.141,223.016 459.459,227.054 C432.336,231.319 404.585,234.224 377.203,233.585 C337.524,232.658 297.952,227.717 258.296,225.05 C226.263,222.895 195.495,226.949 168.911,247.203 C161.364,252.952 154.658,259.358 152.804,269.935 C155.434,269.724 157.029,270.091 157.641,269.478 C193.588,233.368 238.513,235.471 283.754,240.316 C322.827,244.5 394.087,247.202 390.833,250.511 C425.066,285.039 470.701,350.788 481.949,376.937 C475.925,381.323 470.623,385.763 464.928,391.806 C451.956,367.118 407.681,330.624 384.937,363.911 C343.126,334.699 316.618,364.368 311.391,395.632 C310.981,398.087 296.253,443.297 322.706,475.224 C338.423,494.193 361.912,501.681 383.842,492.581 C384.914,492.86 386.057,493.375 387.519,493.858 L392.19,506.965 C395.179,501.426 397.355,498.168 398.792,494.611 C413.324,458.669 439.222,431.239 466.661,410.673 C513.198,375.792 540.343,357.373 589.713,347.083 C589.735,347.084 589.76,347.085 589.78,347.08 C606.825,342.639 637.284,334.704 637.275,394.056 C637.266,454.405 588.149,550.707 456.798,555.724 C447.43,556.082 438.274,552.773 429.015,551.274 C431.711,557.158 435.02,560.873 439.156,562.896 C455.617,570.947 472.276,574.569 489.068,573.807 C490.671,592.063 501.052,609.682 503.454,628.7 C457.314,651.301 410.559,652.161 364.965,633.835 C336.025,622.202 308.926,604.329 310.372,565.599 C315.344,561.258 320.506,556.753 326.154,551.822 C301.277,538.989 280.086,548.454 278.569,572.105 C286.199,569.436 293.655,566.828 302.764,563.642 C304.397,578.268 305.382,591.16 307.345,603.901 C312.636,638.231 321.252,671.161 345.036,698.345 C365.119,721.298 396.795,731.483 425.087,722.135 C433.203,719.454 442.359,716.548 440.945,703.447 C433.302,703.003 426.282,702.595 419.108,702.178 C410.848,686.343 415.517,672.965 422.893,659.077 C458.341,658.523 492.846,655.252 520.221,628.83 C514.663,614.559 509.069,602.659 505.439,590.188 C503.75,584.385 502.519,578.449 501.377,572.488 C509.135,571.119 516.917,568.866 524.722,565.542 C534.047,561.57 543.208,557.215 552.634,552.949 C554.563,556.814 556.076,560.603 557.583,564.393 C560.865,599.585 560.184,634.553 555.038,669.432 C554.239,673.244 553.566,677.088 552.72,680.885 C535.746,757.126 494.399,812.144 427.495,844.421 C421.32,845.017 414.959,845.053 408.201,844.06 C363.57,837.512 320.481,825.642 277.464,812.664 C275.384,812.036 267.889,812.351 263.607,812.033 C266.466,811.61 269.334,811.234 272.184,810.773 C270.346,808.312 181.649,620.242 152.218,569.855 M502.577,819.176 C511.938,845.456 509.269,870.447 504.202,900.373 C489.319,879.639 480.774,858.571 454.739,851.728 C472.496,839.646 486.956,829.806 502.577,819.176 M507.336,1051.1 C506.503,1049.624 505.316,1048.245 504.89,1046.662 C496.809,1016.548 488.721,986.435 480.945,956.243 C480.075,952.862 480.276,948.724 481.383,945.405 C484.768,935.252 488.836,925.326 494.031,911.647 C516.954,958.448 508.468,1005.043 507.336,1051.1 M425.568,969.728 C426.864,953.568 426.297,953.524 446.105,951.141 C449.579,967.696 453.08,984.381 456.581,1001.067 C457.466,1001.121 458.352,1001.176 459.237,1001.231 C459.634,996.201 459.835,991.146 460.48,986.148 C461.183,980.684 456.23,973.523 465.429,970.008 C466.182,969.721 463.353,960.055 461.129,949.916 C466.432,955.665 469.946,957.932 471.236,961.105 C489.034,1004.871 495.65,1051.152 501.13,1097.632 C501.793,1103.26 501.336,1109.246 500.202,1114.823 C495.555,1137.68 490.445,1160.442 481.914,1183.535 C479.621,1179.376 477.134,1175.311 475.064,1171.043 C456.923,1133.625 438.738,1096.227 420.926,1058.651 C418.888,1054.35 417.993,1048.906 418.396,1044.147 C420.505,1019.316 423.574,994.566 425.568,969.728 M407.765,931.65 C388.883,912.995 388.424,908.421 403.367,886.433 C408.717,878.562 414.319,870.814 419.974,862.813 C421.435,862.307 422.916,861.762 424.356,861.267 C446.776,861.129 465.928,870.632 476.688,888.71 C485.195,903.003 481.617,921.934 473.279,934.811 C455.817,936.619 440.912,938.357 425.966,939.565 C422.438,939.85 418.535,938.903 415.232,937.511 C412.415,936.323 410.018,933.876 407.765,931.65 M351.479,942.376 C326.143,926.52 271.54,850.292 264.263,816.662 C306.581,839.666 349.644,854.706 396.47,860.129 C380.695,888.967 366.055,915.73 351.479,942.376 M370.742,943.604 C375.249,936 378.908,927.895 383.003,919.901 C393.77,933.122 402.932,944.371 412.943,956.665 C411.36,979.966 409.651,1005.111 407.762,1032.918 C398.01,1025.827 394.224,1017.124 389.657,1009.306 C383.224,998.294 378.05,986.527 371.301,975.73 C364.451,964.772 364.219,954.609 370.742,943.604 M521.537,989.829 C521.043,982.177 520.473,974.453 518.965,966.958 C514.397,944.248 512.118,922.311 519.277,898.972 C524.179,882.99 521.959,864.825 522.922,847.635 C538.908,876.463 551.871,905.988 554.202,939.954 C544.321,944.67 534.741,949.242 522.999,954.847 C534.777,970.037 544.735,983.956 555.86,996.87 C564.063,1006.391 566.333,1015.667 563.675,1028.251 C554.422,1072.044 546.996,1116.222 537.78,1160.024 C531.681,1189.01 518.077,1215.224 502.944,1244.945 C494.689,1223.922 486.627,1208.539 493.62,1186.459 C513.803,1122.737 525.897,1057.293 521.537,989.829 M591.593,909.906 C597.028,951.111 607.245,991.663 613.571,1032.78 C619.51,1071.377 623.464,1110.303 627.46,1149.17 C636.92,1241.2 639.777,1333.486 635.889,1425.917 C635.027,1446.378 631.941,1466.755 629.586,1487.137 C629.096,1491.38 627.301,1495.474 626.054,1499.822 C610.072,1497.746 595.08,1495.798 579.174,1493.732 L579.174,1476.81 C589.726,1481.507 599.148,1485.7 610.339,1490.68 C612.284,1483.982 614.605,1479.389 614.825,1474.697 C617.111,1426.03 621.59,1377.292 620.522,1328.682 C618.804,1250.526 614.447,1172.376 609.027,1094.376 C606.374,1056.184 599.04,1018.299 593.282,980.357 C592.214,973.319 588.555,966.674 584.901,956.549 C577.768,968.739 580.228,977.571 581.334,986.14 C586.005,1022.348 592.471,1058.41 595.277,1094.757 C600.309,1159.947 603.953,1225.272 606.664,1290.603 C608.337,1330.935 607.407,1371.383 607.235,1411.777 C607.174,1426.201 607.438,1440.872 600.68,1457.112 C568.123,1419.759 538.051,1382.665 490.655,1364.797 C499.558,1329.798 511.848,1295.485 508.216,1255.952 C535.087,1212.5 553.041,1162.223 562.86,1108.983 C566.581,1088.813 569.165,1068.431 572.154,1048.129 C576.586,1018.041 571.44,990.872 547.904,969.354 C546.049,967.657 544.553,965.568 541.513,962.08 C548.815,960.319 554.774,958.881 561.253,957.319 C575.62,924.949 555.874,896.569 547.378,866.12 C576.059,874.1 588.71,888.044 591.593,909.906 M608.232,1578.598 C603.586,1593.852 601.707,1594.41 586.213,1593.967 C580.629,1593.808 575.065,1592.954 567.872,1592.261 C570.784,1564.442 573.552,1537.993 576.56,1509.255 C592.872,1513.523 606.73,1517.15 622.564,1521.294 C617.292,1542.735 613.613,1560.926 608.232,1578.598 M662.532,2096.471 C656.334,2077.613 633.479,2080.976 611.977,2069.35 C584.387,2054.434 550.338,2048.601 528.563,2014.87 C527.649,2013.454 526.045,2012.173 524.309,2010.219 C538.588,1967.173 534.237,1927.012 503.222,1892.881 C505.504,1881.238 511.402,1874.184 521.213,1870.622 C536.672,1865.01 542.511,1853.481 542.569,1837.763 C542.596,1830.132 543.25,1822.431 544.447,1814.892 C547.146,1797.892 551.454,1781.081 553.151,1763.999 C557.399,1721.229 560.497,1678.345 564.218,1635.521 C564.762,1629.265 566.189,1623.087 567.272,1616.474 C573.889,1615.609 579.526,1614.81 585.177,1614.144 C600.565,1612.331 611.738,1605.784 615.361,1589.323 C618.933,1573.091 623.76,1557.128 627.093,1540.854 C629.215,1530.497 627.41,1519.326 639.323,1512.665 C642.372,1510.96 643.002,1503.427 643.269,1498.491 C645.288,1461.336 648.129,1424.172 648.462,1386.991 C649.222,1302.274 645.42,1217.78 637.192,1133.343 C630.036,1059.914 623.323,986.645 605.888,914.716 C596.293,875.133 596.512,875.792 561.829,853.5 C543.933,841.999 528.359,826.883 510.779,812.623 C510.831,812.575 510.871,812.539 510.921,812.491 C507.877,811.966 504.865,811.328 501.885,810.58 C594.111,717.124 578.4,588.635 571.72,542.607 C608.794,518.652 637.114,480.139 648.286,437.207 C655.789,408.369 663.312,357.095 637.284,334.704 C611.193,312.261 565.806,332.645 539.683,343.948 C525.56,350.058 512.176,357.203 499.405,365.155 C470.721,321.243 455.838,281.464 415.342,249.523 C428.47,249.345 471.466,238.623 481.012,236.027 C514.491,211.205 528.302,170.098 510.69,143.579 C508.922,145.516 507.311,147.223 505.769,148.991 C504.064,150.947 502.424,152.958 498.199,157.988 C503.72,110.288 497.888,71.104 453.192,44.342 C451.271,58.28 449.79,69.02 448.309,79.761 C438.994,56.513 440.633,28.534 416.002,14.089 C393.838,1.09 370.067,-2.873 343.606,7.051 C350.567,23.79 368.1,35.322 358.469,56.155 C355.22,51.683 352.768,48.158 350.166,44.75 C330.645,19.187 289.815,6.93 259.872,18.029 C256.845,19.151 253.741,22.599 252.723,25.652 C252.122,27.451 255.184,30.998 257.307,33.013 C259.058,34.675 262.101,34.889 264.144,36.344 C285.093,51.256 291.304,81.334 277.576,103.133 C268.393,103.593 258.741,105.01 249.255,104.279 C240.4,103.597 231.759,100.446 222.96,98.704 C173.29,88.873 129.826,98.166 97.434,140.291 C76.372,167.681 65.395,198.454 67.428,233.384 C67.732,238.597 67.471,243.843 67.471,250.032 C57.216,244.523 49.511,240.384 42.312,236.517 C35.333,243.321 29.649,248.862 23.735,254.626 C26.953,258.122 30.308,261.766 34.768,266.611 C31.358,269.137 29.778,270.223 28.289,271.423 C-0.362,294.509 -5.923,329.025 12.902,360.582 C39.414,405.022 65.265,449.854 91.511,494.711 C88.781,497.029 86.939,498.798 84.897,500.295 C47.843,527.434 47.637,579.594 74.067,609.393 C85.987,622.834 99.678,630.23 117.171,631.351 C133.532,632.401 146.54,626.431 155.136,609.913 C159.524,617.533 162.798,622.985 165.85,628.559 C176.63,648.246 186.938,668.203 198.151,687.639 C220.647,726.635 238.588,767.646 253.368,810.081 C253.759,811.202 253.981,812.305 254.231,813.41 C254.987,813.312 255.736,813.18 256.491,813.078 C247.092,817.318 234.427,828.586 227.649,831.997 C214.475,838.627 200.863,844.396 187.769,851.174 C179.952,855.22 172.766,860.483 166.272,864.583 C166.272,872.982 166.363,879.311 166.255,885.638 C165.855,909.343 163.201,933.251 165.368,956.715 C171.282,1020.764 169.419,1084.917 170.734,1149.027 C170.979,1160.963 172.28,1172.877 173.22,1186.652 C164.407,1193.036 161.893,1203.289 165.774,1215.825 C167.253,1220.608 166.989,1225.976 167.219,1231.091 C170.148,1296.059 166.283,1360.468 152.971,1424.308 C145.899,1458.215 146.717,1458.374 172.94,1480.905 C173.811,1481.655 174.112,1483.069 175.131,1485.053 C174.08,1490.507 172.883,1496.722 171.743,1502.636 C148.449,1506.295 142.35,1512.748 139.605,1536.061 C139.081,1540.518 138.457,1545.042 138.689,1549.492 C139.335,1561.846 144.566,1572.84 155.59,1577.899 C169.972,1584.498 185.482,1588.738 200.678,1593.438 C217.986,1598.79 231.902,1592.272 244.183,1580.165 C249.33,1575.09 253.82,1568.517 263.775,1567.407 C263.775,1580.687 263.986,1592.802 263.739,1604.907 C262.445,1668.375 261.457,1731.856 259.404,1795.301 C258.806,1813.812 254.773,1832.19 252.86,1850.685 C251.576,1863.101 247.661,1875.885 260.622,1886.004 C266.152,1890.322 263.339,1898.787 256.758,1901.579 C253.907,1902.788 250.455,1902.513 247.315,1903.116 C227.2,1906.974 212.944,1917.782 209.021,1938.552 C205.473,1957.342 201.738,1976.386 201.381,1995.38 C201.17,2006.627 224.838,2014.408 216.921,2020.85 C191.046,2041.901 168.123,2054.767 149.419,2074.777 C140.847,2083.948 148.285,2115.465 158.422,2122.37 C167.801,2128.76 255.901,2164.147 331.326,2139.361 C349.614,2133.351 350.586,2090.455 354.334,2080.247 C356.574,2074.146 359.702,2070.817 368.608,2071.314 C368.608,2083.419 368.027,2094.954 368.897,2106.379 C369.241,2110.904 372.09,2118.36 375.034,2119.027 C388.017,2121.967 401.649,2124.939 414.63,2123.667 C420.385,2123.102 425.113,2112.462 430.414,2106.49 C431.197,2105.607 432.569,2105.246 435.119,2103.849 C439.965,2107.926 445.463,2112.15 450.498,2116.87 C462.327,2127.96 476.109,2132.645 492.393,2133.116 C531.495,2134.248 570.561,2136.535 609.648,2138.224 C619.904,2138.667 630.204,2139.137 640.443,2138.686 C654.527,2138.066 666.887,2109.721 662.532,2096.471" fill="#000000"/>
    </g>
  </g>
</svg>
